<svg width="37" height="44" viewBox="0 0 37 44" fill="none" xmlns="http://www.w3.org/2000/svg">
<path d="M35 35.5V9.5L1.5 9L2 34L5 39L18 42L30.5 40L35 35.5Z" fill="white"/>
<path d="M35 8.58204C35 12.497 28.4411 16.1773 18.5 16.1773C8.55887 16.1773 2 12.7302 2 8.8152C2 4.90025 8.55887 2 18.5 2C28.4411 2 35 4.66708 35 8.58204Z" fill="#D9D9D9"/>
<path d="M35 8.58204V34.1132C35 35.8619 33.0345 37.6573 32.4138 38.077C26.3104 42.9734 12.1379 43.6729 4.17243 37.9604C2.8276 37.0277 2 35.6288 2 34.1132V8.8152M35 8.58204C35 12.497 28.4411 16.1773 18.5 16.1773C8.55887 16.1773 2 12.7302 2 8.8152M35 8.58204C35 4.66708 28.4411 2 18.5 2C8.55887 2 2 4.90025 2 8.8152" stroke="black" stroke-width="3"/>
<path d="M35 26.926C31.4019 36.3836 6.125 36.0615 2 26.926M35 17.6963C31.4019 27.1539 5.78318 27.1305 2 17.6963" stroke="black" stroke-width="3"/>
<ellipse cx="5.98389" cy="18.1765" rx="1" ry="1.01267" fill="black"/>
<ellipse cx="5.98389" cy="26.2778" rx="1" ry="1.01267" fill="black"/>
<ellipse cx="6" cy="34.9116" rx="1" ry="1.01267" fill="black"/>
</svg>
