<svg width="40" height="44" viewBox="0 0 40 44" fill="none" xmlns="http://www.w3.org/2000/svg">
<path d="M4.91215 30.0409C7.2665 33.6889 10.843 36.3624 14.9896 37.5738L16.8235 32.6266C10.4706 30.5848 7.29412 26.5013 7.29412 20.376C7.29412 13.2298 12.5882 7.10443 20 7.10443C27.4118 7.10443 32.7059 13.2298 32.7059 20.376C32.7059 26.5013 29.6994 30.2191 26.5229 32.4181L23.7444 26.0302L18.9146 37.3552L30.6906 42L28.2594 36.4106C30.3771 35.3897 33.0476 33.3816 35.3157 29.6785C37.5838 25.9754 38.4561 21.5739 37.7736 17.2765C37.091 12.9792 34.899 9.07226 31.5973 6.26822C28.2956 3.46418 24.1041 1.94982 19.7872 2.00127C15.4703 2.05272 11.3155 3.66656 8.08051 6.54851C4.84549 9.43046 2.74574 13.3885 2.16413 17.701C1.58252 22.0134 2.55781 26.3929 4.91215 30.0409Z" fill="white" stroke="black" stroke-width="3" stroke-linejoin="round"/>
</svg>
