<svg width="21" height="21" viewBox="0 0 21 21" fill="none" xmlns="http://www.w3.org/2000/svg">
<path d="M1.47487 11.7279C0.498563 10.7516 0.498563 9.1687 1.47487 8.19239L8.19239 1.47488C9.1687 0.498567 10.7516 0.498567 11.7279 1.47488L18.4454 8.19239C19.4217 9.1687 19.4217 10.7516 18.4454 11.7279L11.7279 18.4454C10.7516 19.4218 9.1687 19.4218 8.19239 18.4454L1.47487 11.7279Z" fill="#85C74E" stroke="black"/>
<path d="M5.80893 12.7113C6.46292 13.7145 7.4564 14.4497 8.60823 14.7828L9.11765 13.4223C7.35294 12.8608 6.47059 11.7379 6.47059 10.0534C6.47059 8.08818 7.94118 6.40372 10 6.40372C12.0588 6.40372 13.5294 8.08818 13.5294 10.0534C13.5294 11.7379 12.6943 12.7603 11.8119 13.365L11 12L10.1929 14.7828L12.5 15.5L12.2943 14.4629C12.8825 14.1822 13.6243 13.63 14.2544 12.6116C14.8844 11.5932 15.1267 10.3828 14.9371 9.20105C14.7475 8.01927 14.1386 6.94487 13.2215 6.17376C12.3043 5.40265 11.14 4.9862 9.94089 5.00035C8.74175 5.0145 7.58765 5.4583 6.68903 6.25084C5.79041 7.04338 5.20715 8.13184 5.04559 9.31776C4.88403 10.5037 5.15495 11.708 5.80893 12.7113Z" fill="white" stroke="black" stroke-width="0.8" stroke-linejoin="round"/>
</svg>
