<svg width="30" height="30" viewBox="0 0 30 30" fill="none" xmlns="http://www.w3.org/2000/svg">
<path d="M2 7.38462C2 6.27692 3.01961 6 3.52941 6H26.4706C27.6941 6 28 6.60276 28 7.38462V22.6154C28 23.7231 26.9804 24 26.4706 24H3.52941C2.30588 24 2 23.0769 2 22.6154V7.38462Z" stroke="black" stroke-width="2"/>
<path d="M17.7625 15.5333C17.7625 15.5333 16.2188 16.875 15 16.875C13.7812 16.875 12.2375 15.5333 12.2375 15.5333M17.7625 15.5333L27.5357 6.42857L26.6071 6H15H3.85714L2.92857 6.42857L12.2375 15.5333M17.7625 15.5333L28 24M12.2375 15.5333L2 24" stroke="black" stroke-width="1.5" stroke-linejoin="round"/>
</svg>
