<svg width="20" height="20" viewBox="0 0 20 20" fill="none" xmlns="http://www.w3.org/2000/svg">
<rect x="0.5" y="0.5" width="19" height="19" rx="3.5" fill="#D9D9D9" stroke="black"/>
<path d="M9.60616 3.7H10.3936C11.0236 3.7 11.1812 4.09375 11.1812 4.4875C11.1812 4.88125 11.1326 5.44758 11.5749 5.66875C12.3624 6.06249 12.7561 5.66872 13.1499 5.27498C13.4649 4.95998 13.8061 5.14373 13.9374 5.27498L14.7248 6.06248C15.1186 6.45623 14.7248 6.84998 14.3311 7.24373C14.0161 7.55873 13.9374 8.03125 14.3311 8.42498C14.7248 8.81875 14.8823 8.81875 15.5123 8.81875C16.2998 8.81875 16.2998 9.475 16.2998 9.60625C16.2998 9.75698 16.3025 10.2035 16.2881 10.3937C16.2486 10.9187 16.0879 11.1812 15.5123 11.1812C14.8074 11.1812 14.5523 11.1327 14.3311 11.575C13.9374 12.3625 14.3311 12.7563 14.7249 13.15C15.0399 13.465 14.8561 13.8062 14.7249 13.9375L13.9374 14.725C13.5436 15.1187 13.1499 14.725 12.7561 14.3312C12.4412 14.0162 11.9686 13.9375 11.5749 14.3312C11.1812 14.725 11.1812 14.8825 11.1812 15.5125C11.1812 15.9062 11.1812 16.3 10.3937 16.3L9.60616 16.3C8.97617 16.3 8.81867 15.9062 8.81867 15.5125C8.81867 15.1187 8.86725 14.5524 8.42493 14.3312C7.63746 13.9375 7.2437 14.3313 6.84996 14.725C6.53496 15.04 6.19372 14.8563 6.06247 14.725L5.27499 13.9375C4.88124 13.5438 5.27499 13.15 5.66873 12.7563C5.98372 12.4413 6.06247 11.9687 5.66873 11.575C5.27499 11.1812 5.11749 11.1812 4.4875 11.1812C3.70001 11.1812 3.70001 10.525 3.70001 10.3937V9.60625C3.70001 8.97625 4.09376 8.81875 4.4875 8.81875C4.88124 8.81875 5.44757 8.86732 5.66873 8.425C6.06247 7.63751 5.6687 7.24374 5.27497 6.85C4.95997 6.535 5.14372 6.19375 5.27497 6.0625L6.06245 5.275C6.4562 4.88125 6.84994 5.275 7.24368 5.66875C7.55868 5.98375 8.03119 6.0625 8.42491 5.66875C8.81868 5.275 8.81867 5.1175 8.81867 4.4875C8.81867 3.81812 9.21242 3.7 9.60616 3.7Z" fill="white" stroke="black"/>
<path d="M7.20001 8.6H12.8M12.8 8.6L10.9936 7.2M12.8 8.6L10.9936 10" stroke="black" stroke-width="0.8" stroke-linecap="round" stroke-linejoin="round"/>
<path d="M12.8 11.4L7.19999 11.4M7.19999 11.4L9.00644 12.8M7.19999 11.4L9.00644 10" stroke="black" stroke-width="0.8" stroke-linecap="round" stroke-linejoin="round"/>
</svg>
