<svg width="40" height="40" viewBox="0 0 40 40" fill="none" xmlns="http://www.w3.org/2000/svg">
<path d="M18.8747 2L21.1247 2C22.9246 2 23.3747 3.125 23.3747 4.25C23.3747 5.375 23.2359 6.9931 24.4997 7.625C26.7496 8.74998 27.8746 7.62493 28.9996 6.49994C29.8996 5.59994 30.8746 6.12494 31.2496 6.49994L33.4995 8.74994C34.6245 9.87494 33.4995 10.9999 32.3745 12.1249C31.4745 13.0249 31.2496 14.375 32.3745 15.4999C33.4995 16.625 33.9495 16.625 35.7495 16.625C37.9994 16.625 37.9994 18.5 37.9994 18.875C37.9994 19.3057 38.0071 20.5813 37.9661 21.125C37.853 22.625 37.3939 23.375 35.7495 23.375C33.7355 23.375 33.0064 23.2362 32.3745 24.5C31.2496 26.75 32.3746 27.875 33.4996 29C34.3996 29.9 33.8746 30.875 33.4996 31.25L31.2496 33.5C30.1246 34.625 28.9997 33.5 27.8747 32.375C26.9747 31.475 25.6247 31.25 24.4997 32.375C23.3747 33.5 23.3747 33.95 23.3747 35.75C23.3747 36.875 23.3747 38 21.1247 38L18.8747 38C17.0747 38 16.6247 36.875 16.6247 35.75C16.6247 34.625 16.7635 33.0069 15.4998 32.375C13.2498 31.25 12.1248 32.3751 10.9998 33.5001C10.0999 34.4001 9.12488 33.8751 8.74989 33.5001L6.49992 31.2501C5.37494 30.1251 6.49992 29.0001 7.6249 27.8751C8.52489 26.9751 8.74989 25.625 7.6249 24.5001C6.49992 23.375 6.04993 23.375 4.24996 23.375C2 23.375 2 21.5 2 21.125V18.875C2 17.075 3.12498 16.625 4.24996 16.625C5.37494 16.625 6.99302 16.7638 7.6249 15.5C8.74987 13.25 7.62483 12.125 6.49987 11C5.59988 10.1 6.12487 9.125 6.49987 8.75L8.74983 6.5C9.87481 5.375 10.9998 6.5 12.1248 7.625C13.0248 8.525 14.3748 8.75 15.4997 7.625C16.6248 6.5 16.6247 6.05 16.6247 4.25C16.6247 2.33749 17.7497 2 18.8747 2Z" fill="white" stroke="black" stroke-width="3"/>
<path d="M12 16H28M28 16L22.8387 12M28 16L22.8387 20" stroke="black" stroke-width="2" stroke-linecap="round" stroke-linejoin="round"/>
<path d="M28 24L12 24M12 24L17.1613 28M12 24L17.1613 20" stroke="black" stroke-width="2" stroke-linecap="round" stroke-linejoin="round"/>
</svg>
