<svg width="45" height="40" viewBox="0 0 45 40" fill="none" xmlns="http://www.w3.org/2000/svg">
<path d="M43.7071 8.70711C44.0976 8.31658 44.0976 7.68342 43.7071 7.29289L37.3431 0.928932C36.9526 0.538408 36.3195 0.538408 35.9289 0.928932C35.5384 1.31946 35.5384 1.95262 35.9289 2.34315L41.5858 8L35.9289 13.6569C35.5384 14.0474 35.5384 14.6805 35.9289 15.0711C36.3195 15.4616 36.9526 15.4616 37.3431 15.0711L43.7071 8.70711ZM31 9H43V7H31V9Z" fill="black"/>
<path d="M21.6904 1.97493C22.0524 1.34169 22.9476 1.34169 23.3096 1.97493L43.3683 37.0581C43.7444 37.716 43.2609 38.5 42.5586 38.5H2.44137C1.73909 38.5 1.25556 37.716 1.63172 37.0581L21.6904 1.97493Z" fill="black" stroke="black" stroke-width="3" stroke-linejoin="round"/>
</svg>
