<svg width="45" height="40" viewBox="0 0 45 40" fill="none" xmlns="http://www.w3.org/2000/svg">
<path d="M14.7071 8.70711C15.0976 8.31658 15.0976 7.68342 14.7071 7.29289L8.34315 0.928932C7.95262 0.538408 7.31946 0.538408 6.92893 0.928932C6.53841 1.31946 6.53841 1.95262 6.92893 2.34315L12.5858 8L6.92893 13.6569C6.53841 14.0474 6.53841 14.6805 6.92893 15.0711C7.31946 15.4616 7.95262 15.4616 8.34315 15.0711L14.7071 8.70711ZM2 9H14V7H2V9Z" fill="black"/>
<path d="M23.3096 1.97494L43.3683 37.0581C43.7444 37.716 43.2609 38.5 42.5586 38.5H2.44137C1.73909 38.5 1.25556 37.716 1.63172 37.0581L21.6904 1.97493C22.0524 1.34169 22.9476 1.34169 23.3096 1.97494Z" fill="white" stroke="black" stroke-width="3" stroke-linejoin="round"/>
</svg>
