<svg width="20" height="20" viewBox="0 0 20 20" fill="none" xmlns="http://www.w3.org/2000/svg">
<rect x="0.5" y="0.5" width="19" height="19" rx="3.5" fill="#D9D9D9" stroke="black"/>
<path d="M7.71854 16.8444H5.15558C4.05101 16.8444 3.15558 15.949 3.15558 14.8444V13.4222V10.084V6.57778V5.15555C3.15558 4.05098 4.05101 3.15556 5.15558 3.15556H14.8445C15.949 3.15556 16.8445 4.05099 16.8445 5.15556V6.57778V10V13.4222V14.8444C16.8445 15.949 15.949 16.8444 14.8445 16.8444H12.2815H7.71854Z" fill="white"/>
<path d="M3.15558 13.4222H16.8445M3.15558 10.084L16.8445 10M3.15558 6.57778H16.8445M3.15558 6.57778L3.15558 14.8444C3.15558 15.949 4.05101 16.8444 5.15558 16.8444H14.8445C15.949 16.8444 16.8445 15.949 16.8445 14.8444V6.57778M3.15558 6.57778L3.15558 5.15555C3.15558 4.05098 4.05101 3.15556 5.15558 3.15556H14.8445C15.949 3.15556 16.8445 4.05099 16.8445 5.15556V6.57778M7.71854 16.8444V6.57778M12.2815 16.8444V6.57778" stroke="black" stroke-linejoin="round"/>
<path d="M16.0001 3.5L17.0001 6.5H10.0001H3.00006L4.00006 3.5H16.0001Z" fill="black"/>
</svg>
