<svg width="38" height="44" viewBox="0 0 38 44" fill="none" xmlns="http://www.w3.org/2000/svg">
<path d="M2 41.675V32.0697C2 26.9578 5.03562 22.3334 10.5 20.3768C12.08 19.8111 14.0889 19.4367 15.2222 18.9714V16.1021C10.7361 13.4825 11.2356 2.00001 19 2.00001C26.7644 2.00001 27.7285 12.6092 23.2424 16.1021V18.9714C24.4229 19.4367 25.8508 19.6378 27.5 20.3768C31.188 22.0294 36 26.9578 36 32.0697V41.675L28.4444 41.675L27.7397 34.4789V41.675L10.5 41.675V34.4789L9.90178 41.675L2 41.675Z" fill="white"/>
<path d="M10.5 20.3768C5.03562 22.3334 2 26.9578 2 32.0697V41.675L9.90179 41.675L10.5 34.4789V41.675L27.7397 41.675V34.4789L28.4444 41.675L36 41.675C36 42.8393 36 41.1511 36 32.0697C36 26.9578 31.188 22.0294 27.5 20.3768M10.5 20.3768C12.08 19.8111 14.0889 19.4367 15.2222 18.9714V16.1021C10.7361 13.4825 11.2356 2.00001 19 2.00001C26.7644 2.00001 27.7285 12.6092 23.2424 16.1021C23.2424 16.1021 23.2424 18.0981 23.2424 18.9714C24.4229 19.4367 25.8508 19.6378 27.5 20.3768M10.5 20.3768C12.204 22.4143 11.8222 25.0839 19 25.0839C26.1778 25.0839 25.7056 22.3334 27.5 20.3768" stroke="black" stroke-width="3" stroke-linejoin="round"/>
<path d="M18.989 7.25888C15.2113 5.99556 14.5816 7.04833 12.6927 7.25888C12.6927 7.25888 13.963 2.20563 19 2.20563C24.0371 2.20563 25.2963 6.62722 25.2963 6.62722C23.1976 7.04833 22.7668 8.5222 18.989 7.25888Z" fill="black" stroke="black" stroke-linecap="round" stroke-linejoin="round"/>
</svg>
