<svg width="30" height="30" viewBox="0 0 30 30" fill="none" xmlns="http://www.w3.org/2000/svg">
<path d="M9.16 23.9214V29M21.6537 23.9214V29M9.16 13.9691C5.19993 15.3499 3 18.6135 3 22.2212V27C3 28.1046 3.89543 29 5 29L25.64 29C26.7446 29 27.64 28.1071 27.64 27.0025C27.64 25.9958 27.64 24.4854 27.64 22.2212C27.64 18.6135 24.1527 15.1354 21.48 13.9691M9.16 13.9691C9.90966 13.7077 10.7926 13.5042 11.5434 13.3027C12.1787 13.1321 12.5822 12.5459 12.5822 11.888V11.888C12.5822 11.3096 12.2494 10.7936 11.8512 10.374C9.42688 7.81967 10.158 1 15.32 1C20.5572 1 21.5252 7.48602 19.0128 10.372C18.6615 10.7756 18.3945 10.9984 18.3945 11.5336V11.5336C18.3945 12.2416 18.8344 13.1362 19.5179 13.3213C20.1123 13.4823 20.7677 13.6583 21.48 13.9691M9.16 13.9691C10.3949 15.4071 10.1182 17.2911 15.32 17.2911C20.5218 17.2911 20.1796 15.35 21.48 13.9691" stroke="black" stroke-width="2" stroke-linecap="round" stroke-linejoin="round"/>
<path d="M15.3042 4.6812C14.6008 4.45385 14.0481 4.33365 13.5918 4.28305C12.2014 4.12884 11.2229 3.19089 12.2672 2.26001C12.963 1.63968 13.9464 1.14392 15.3121 1.14392C16.9133 1.14392 17.9874 1.74019 18.6886 2.4093C19.542 3.22357 18.9544 4.71742 17.8012 4.96515C17.2289 5.08809 16.4968 5.06669 15.3042 4.6812Z" fill="black" stroke="black" stroke-linecap="round" stroke-linejoin="round"/>
</svg>
