<svg width="20" height="20" viewBox="0 0 20 20" fill="none" xmlns="http://www.w3.org/2000/svg">
<rect x="0.5" y="0.5" width="19" height="19" rx="3.5" fill="#66CC72" stroke="black"/>
<path d="M5 14V7H15V14C11 17.6 6.66667 15.5 5 14Z" fill="white"/>
<path d="M15.1334 5.92987C15.1334 7.11741 13.0928 8.23377 10 8.23377C6.90724 8.23377 4.8667 7.18813 4.8667 6.0006C4.8667 4.81306 6.90724 3.93332 10 3.93332C13.0928 3.93332 15.1334 4.74233 15.1334 5.92987Z" fill="#D9D9D9"/>
<path d="M15.1334 5.92987V13.6743C15.1334 14.2048 14.5219 14.7494 14.3288 14.8767C12.4299 16.3619 8.02073 16.5741 5.54257 14.8413C5.12417 14.5584 4.8667 14.134 4.8667 13.6743V6.0006M15.1334 5.92987C15.1334 7.11741 13.0928 8.23377 10 8.23377C6.90724 8.23377 4.8667 7.18813 4.8667 6.0006M15.1334 5.92987C15.1334 4.74233 13.0928 3.93332 10 3.93332C6.90724 3.93332 4.8667 4.81306 4.8667 6.0006M15.1334 11.1667C15.1334 11.6971 14.5219 12.2417 14.3288 12.369C12.4299 13.8542 8.02073 14.0664 5.54257 12.3336C5.12417 12.0507 4.8667 11.6264 4.8667 11.1667M15.1334 8.59999C15.1334 9.13043 14.5219 9.67501 14.3288 9.80232C12.4299 11.2876 8.02073 11.4997 5.54257 9.76696C5.12417 9.48406 4.8667 9.0597 4.8667 8.59999" stroke="black"/>
</svg>
