<svg width="30" height="30" viewBox="0 0 30 30" fill="none" xmlns="http://www.w3.org/2000/svg">
<path d="M26 6.27833C26 8.82305 21.6274 11.2153 15 11.2153C8.37258 11.2153 4 8.97461 4 6.42988C4 3.88516 8.37258 2 15 2C21.6274 2 26 3.7336 26 6.27833Z" fill="#D9D9D9"/>
<path d="M26 6.27833V22.8736C26 24.0103 24.6897 25.1772 24.2759 25.45C20.2069 28.6327 10.7586 29.0874 5.44828 25.3743C4.55173 24.768 4 23.8587 4 22.8736V6.42988M26 6.27833C26 8.82305 21.6274 11.2153 15 11.2153C8.37258 11.2153 4 8.97461 4 6.42988M26 6.27833C26 3.7336 21.6274 2 15 2C8.37258 2 4 3.88516 4 6.42988M26 17.5C26 18.6367 24.6897 19.8036 24.2759 20.0764C20.2069 23.2591 10.7586 23.7138 5.44828 20.0007C4.55173 19.3944 4 18.4851 4 17.5M26 12C26 13.1367 24.6897 14.3036 24.2759 14.5764C20.2069 17.7591 10.7586 18.2138 5.44828 14.5007C4.55173 13.8944 4 12.9851 4 12" stroke="black" stroke-width="2"/>
</svg>
