<svg width="30" height="30" viewBox="0 0 30 30" fill="none" xmlns="http://www.w3.org/2000/svg">
    <path d="M11.4998 5.375L10.8634 4.73859L10.8634 4.73863L11.4998 5.375ZM8.87482 5.375L8.23842 6.01139L8.23842 6.01139L8.87482 5.375ZM6.24986 4.5L5.61346 3.86361L5.61346 3.86361L6.24986 4.5ZM4.4999 6.25L5.1363 6.88639L5.1363 6.88639L4.4999 6.25ZM4.4999 8L3.86349 8.63639L3.86349 8.63639L4.4999 8ZM5.37492 11.5L6.17991 11.9025L6.17991 11.9025L5.37492 11.5ZM2.98794 12.3767L2.99731 11.4767L2.99731 11.4767L2.98794 12.3767ZM5.37493 18.5L4.73851 19.1364L4.73854 19.1365L5.37493 18.5ZM5.37493 21.125L6.01133 21.7614L6.01133 21.7614L5.37493 21.125ZM4.49994 23.75L5.13634 23.1137L5.13634 23.1137L4.49994 23.75ZM6.24991 25.5L5.61351 26.1364L5.61351 26.1364L6.24991 25.5ZM7.99988 25.5L8.63628 26.1364L8.63628 26.1364L7.99988 25.5ZM11.4998 24.625L11.9023 23.82L11.9023 23.82L11.4998 24.625ZM12.3765 27.012L11.4765 27.0026L11.4765 27.0027L12.3765 27.012ZM14.1248 29L14.1248 28.1H14.1248V29ZM15.8748 29L15.8748 29.9H15.8748V29ZM18.4998 24.625L19.1362 25.2614L19.1362 25.2614L18.4998 24.625ZM21.1247 24.625L20.4883 25.2614L20.4883 25.2614L21.1247 24.625ZM25.4997 23.75L26.1361 24.3864L26.1361 24.3864L25.4997 23.75ZM25.4997 22L26.1361 21.3636L26.1361 21.3636L25.4997 22ZM24.6246 18.5L25.4296 18.9025L25.4296 18.9025L24.6246 18.5ZM26.8279 17.6231L26.8216 18.5231L26.8216 18.5231L26.8279 17.6231ZM28.9736 15.875L29.8711 15.9427L29.8711 15.9427L28.9736 15.875ZM28.9997 14.2661L29.8997 14.2646L29.8997 14.2646L28.9997 14.2661ZM24.6246 11.5L25.2611 10.8636L25.261 10.8635L24.6246 11.5ZM24.6246 8.87496L23.9882 8.23857L23.9882 8.23857L24.6246 8.87496ZM25.4996 6.24996L26.136 5.61357L26.136 5.61357L25.4996 6.24996ZM23.7496 4.49996L23.1132 5.13635L23.1132 5.13635L23.7496 4.49996ZM21.9997 4.49996L21.3633 3.86357L21.3633 3.86357L21.9997 4.49996ZM18.4997 5.375L18.9022 4.57002L18.9022 4.57002L18.4997 5.375ZM17.6231 2.98798L18.523 2.99735L18.523 2.99735L17.6231 2.98798ZM14.1248 1.9H15.8747V0.1H14.1248V1.9ZM13.2748 2.75C13.2748 2.18623 13.4321 2.05989 13.4693 2.03143C13.5562 1.96476 13.7437 1.9 14.1248 1.9V0.1C13.6309 0.1 12.9434 0.166485 12.3741 0.602941C11.755 1.0776 11.4748 1.82627 11.4748 2.75H13.2748ZM12.1362 6.01141C12.6107 5.53688 12.9559 5.10121 13.1289 4.51333C13.2832 3.98851 13.2748 3.39896 13.2748 2.75H11.4748C11.4748 3.50104 11.4664 3.78649 11.402 4.00542C11.3562 4.16129 11.2639 4.33812 10.8634 4.73859L12.1362 6.01141ZM8.23842 6.01139C8.71696 6.48994 9.35711 6.83024 10.0789 6.86461C10.8193 6.89986 11.54 6.60757 12.1362 6.01137L10.8634 4.73863C10.5846 5.01743 10.3428 5.07514 10.1645 5.06664C9.96753 5.05726 9.73267 4.96006 9.51122 4.73861L8.23842 6.01139ZM6.88627 5.13639C6.99497 5.02769 7.03764 5.03509 7.01774 5.03758C7.00761 5.03885 7.04491 5.02876 7.15984 5.08623C7.4382 5.22541 7.76484 5.5378 8.23842 6.01139L9.51122 4.73861C9.10982 4.3372 8.56147 3.77459 7.96484 3.47627C7.64228 3.31499 7.24209 3.19553 6.79447 3.25148C6.33707 3.30866 5.94226 3.53481 5.61346 3.86361L6.88627 5.13639ZM5.1363 6.88639L6.88627 5.13639L5.61346 3.86361L3.86349 5.61361L5.1363 6.88639ZM5.1363 7.36361C5.05215 7.27946 5.02847 7.22213 5.02091 7.19846C5.01311 7.17402 5.01101 7.14921 5.01633 7.11648C5.02231 7.07979 5.03793 7.03414 5.06516 6.98512C5.09302 6.93496 5.12268 6.9 5.1363 6.88639L3.86349 5.61361C3.61583 5.86128 3.32756 6.28769 3.23972 6.82727C3.1428 7.42266 3.30609 8.07898 3.86349 8.63639L5.1363 7.36361ZM6.17991 11.9025C6.70891 10.8445 6.76138 9.9179 6.42926 9.08762C6.12955 8.33836 5.54467 7.77199 5.1363 7.36361L3.86349 8.63639C4.33009 9.10299 4.62021 9.41164 4.75801 9.75614C4.86341 10.0196 4.91591 10.4056 4.56994 11.0975L6.17991 11.9025ZM2.97858 13.2766C3.38099 13.2808 3.98444 13.2922 4.55017 13.1513C5.15132 13.0015 5.80272 12.6569 6.17991 11.9025L4.56994 11.0975C4.49871 11.24 4.38242 11.3381 4.11508 11.4047C3.81232 11.4801 3.44649 11.4814 2.99731 11.4767L2.97858 13.2766ZM2.74997 13.275C2.8211 13.275 2.89589 13.2758 2.97858 13.2766L2.99731 11.4767C2.9165 11.4759 2.83213 11.475 2.74997 11.475V13.275ZM1.9 14.125C1.9 13.6236 2.04673 13.4777 2.1091 13.4278C2.20981 13.3472 2.40864 13.275 2.74997 13.275V11.475C2.21632 11.475 1.54016 11.5778 0.984634 12.0222C0.390766 12.4973 0.1 13.2264 0.1 14.125H1.9ZM1.9 15.875V14.125H0.1V15.875H1.9ZM2.74997 16.725C2.4391 16.725 2.27178 16.6611 2.18636 16.6121C2.10342 16.5644 2.0499 16.5037 2.00886 16.4284C1.90872 16.2448 1.9 16.0131 1.9 15.875H0.1C0.1 16.0286 0.0912767 16.6718 0.428637 17.2903C0.606336 17.6161 0.880936 17.9382 1.29018 18.1731C1.69693 18.4066 2.18586 18.525 2.74997 18.525V16.725ZM6.01134 17.8637C5.53683 17.3891 5.10116 17.0439 4.51328 16.871C3.98847 16.7166 3.39892 16.725 2.74997 16.725V18.525C3.501 18.525 3.78644 18.5334 4.00535 18.5978C4.16121 18.6436 4.33803 18.7359 4.73851 19.1364L6.01134 17.8637ZM6.01133 21.7614C6.48987 21.2829 6.83015 20.6427 6.86452 19.921C6.89978 19.1806 6.6075 18.4598 6.01131 17.8636L4.73854 19.1365C5.01734 19.4152 5.07505 19.657 5.06656 19.8353C5.05718 20.0323 4.95997 20.2672 4.73852 20.4887L6.01133 21.7614ZM5.13634 23.1137C5.02764 23.005 5.03504 22.9623 5.03753 22.9822C5.03879 22.9923 5.02871 22.955 5.08618 22.84C5.22536 22.5617 5.53775 22.235 6.01133 21.7614L4.73852 20.4887C4.33712 20.8901 3.77452 21.4384 3.47621 22.0351C3.31493 22.3576 3.19548 22.7578 3.25143 23.2054C3.3086 23.6628 3.53475 24.0576 3.86354 24.3864L5.13634 23.1137ZM6.88631 24.8637L5.13634 23.1137L3.86354 24.3864L5.61351 26.1364L6.88631 24.8637ZM7.36348 24.8637C7.27933 24.9478 7.222 24.9715 7.19834 24.979C7.17391 24.9868 7.1491 24.9889 7.11638 24.9836C7.0797 24.9776 7.03405 24.962 6.98504 24.9348C6.93488 24.9069 6.89992 24.8773 6.88631 24.8637L5.61351 26.1364C5.86118 26.3841 6.28758 26.6724 6.82716 26.7602C7.42256 26.8572 8.07887 26.6939 8.63628 26.1364L7.36348 24.8637ZM11.9023 23.82C10.8443 23.291 9.91775 23.2385 9.08747 23.5707C8.33822 23.8704 7.77185 24.4553 7.36348 24.8637L8.63628 26.1364C9.10288 25.6698 9.41151 25.3797 9.756 25.2419C10.0195 25.1365 10.4054 25.084 11.0973 25.43L11.9023 23.82ZM13.2764 27.0214C13.2806 26.619 13.292 26.0155 13.1511 25.4498C13.0014 24.8486 12.6567 24.1972 11.9023 23.82L11.0973 25.43C11.2398 25.5012 11.3379 25.6175 11.4045 25.8849C11.4799 26.1876 11.4812 26.5535 11.4765 27.0026L13.2764 27.0214ZM13.2748 27.25C13.2748 27.1789 13.2756 27.1041 13.2764 27.0214L11.4765 27.0027C11.4757 27.0835 11.4748 27.1678 11.4748 27.25H13.2748ZM14.1248 28.1C13.6234 28.1 13.4775 27.9533 13.4276 27.8909C13.347 27.7902 13.2748 27.5913 13.2748 27.25H11.4748C11.4748 27.7837 11.5776 28.4598 12.022 29.0153C12.4971 29.6092 13.2261 29.9 14.1248 29.9V28.1ZM15.8748 28.1L14.1248 28.1L14.1248 29.9L15.8748 29.9L15.8748 28.1ZM16.7248 27.25C16.7248 27.4813 16.7233 27.6384 16.7053 27.7736C16.6883 27.9015 16.6632 27.9448 16.6572 27.9539C16.655 27.9572 16.6522 27.9609 16.644 27.9674C16.6349 27.9744 16.6107 27.9912 16.5603 28.0108C16.453 28.0525 16.2453 28.1 15.8748 28.1V29.9C16.8686 29.9 17.6887 29.6516 18.1549 28.9523C18.5541 28.3535 18.5248 27.6098 18.5248 27.25H16.7248ZM17.8634 23.9886C17.3889 24.4631 17.0436 24.8988 16.8707 25.4867C16.7163 26.0115 16.7248 26.601 16.7248 27.25H18.5248C18.5248 26.499 18.5332 26.2135 18.5976 25.9946C18.6434 25.8387 18.7357 25.6619 19.1362 25.2614L17.8634 23.9886ZM21.7611 23.9886C21.2826 23.5101 20.6425 23.1698 19.9207 23.1354C19.1803 23.1001 18.4595 23.3924 17.8634 23.9886L19.1362 25.2614C19.415 24.9826 19.6567 24.9249 19.8351 24.9334C20.032 24.9427 20.2669 25.0399 20.4883 25.2614L21.7611 23.9886ZM23.1133 24.8636C23.0046 24.9723 22.9619 24.9649 22.9818 24.9624C22.992 24.9612 22.9547 24.9712 22.8397 24.9138C22.5614 24.7746 22.2347 24.4622 21.7611 23.9886L20.4883 25.2614C20.8897 25.6628 21.4381 26.2254 22.0347 26.5237C22.3573 26.685 22.7575 26.8045 23.2051 26.7485C23.6625 26.6913 24.0573 26.4652 24.3861 26.1364L23.1133 24.8636ZM24.8633 23.1136L23.1133 24.8636L24.3861 26.1364L26.1361 24.3864L24.8633 23.1136ZM24.8633 22.6364C24.9474 22.7205 24.9711 22.7779 24.9787 22.8015C24.9865 22.826 24.9886 22.8508 24.9832 22.8835C24.9773 22.9202 24.9616 22.9659 24.9344 23.0149C24.9065 23.065 24.8769 23.1 24.8633 23.1136L26.1361 24.3864C26.3837 24.1387 26.672 23.7123 26.7598 23.1727C26.8568 22.5773 26.6935 21.921 26.1361 21.3636L24.8633 22.6364ZM23.8197 18.0975C23.2907 19.1555 23.2382 20.0821 23.5703 20.9124C23.87 21.6616 24.4549 22.228 24.8633 22.6364L26.1361 21.3636C25.6695 20.897 25.3794 20.5884 25.2416 20.2439C25.1362 19.9804 25.0837 19.5944 25.4296 18.9025L23.8197 18.0975ZM26.8342 16.7231C26.2693 16.7192 25.6563 16.7041 25.1473 16.8682C24.5134 17.0725 24.1151 17.5065 23.8197 18.0975L25.4296 18.9025C25.5118 18.7381 25.5717 18.6666 25.6042 18.6354C25.6279 18.6125 25.6505 18.5972 25.6995 18.5814C25.7629 18.561 25.8699 18.5406 26.066 18.5301C26.2636 18.5195 26.5 18.5208 26.8216 18.5231L26.8342 16.7231ZM27.2496 16.725C27.1038 16.725 26.9665 16.724 26.8342 16.7231L26.8216 18.5231C26.9533 18.524 27.0966 18.525 27.2496 18.525V16.725ZM28.0762 15.8073C28.0349 16.3539 27.9379 16.5309 27.8866 16.5885C27.8706 16.6063 27.7687 16.725 27.2496 16.725V18.525C28.0095 18.525 28.7256 18.352 29.2299 17.7866C29.6988 17.2608 29.8243 16.5628 29.8711 15.9427L28.0762 15.8073ZM28.0997 14.2676C28.1005 14.7037 28.101 15.4773 28.0762 15.8073L29.8711 15.9427C29.9026 15.525 29.9004 14.661 29.8997 14.2646L28.0997 14.2676ZM28.0996 14.125C28.0996 14.1648 28.0996 14.2133 28.0997 14.2676L29.8997 14.2646C29.8996 14.2097 29.8996 14.1629 29.8996 14.125H28.0996ZM27.2496 13.275C27.5605 13.275 27.7278 13.3389 27.8132 13.3879C27.8961 13.4356 27.9497 13.4963 27.9907 13.5716C28.0908 13.7552 28.0996 13.9869 28.0996 14.125H29.8996C29.8996 13.9714 29.9083 13.3282 29.5709 12.7097C29.3932 12.3839 29.1186 12.0618 28.7094 11.8269C28.3026 11.5934 27.8137 11.475 27.2496 11.475V13.275ZM23.9882 12.1363C24.4627 12.6109 24.8984 12.9561 25.4863 13.129C26.0111 13.2834 26.6006 13.275 27.2496 13.275V11.475C26.4986 11.475 26.2131 11.4666 25.9942 11.4022C25.8383 11.3564 25.6615 11.2641 25.2611 10.8636L23.9882 12.1363ZM23.9882 8.23857C23.5097 8.71712 23.1694 9.35727 23.135 10.079C23.0998 10.8194 23.3921 11.5402 23.9882 12.1364L25.261 10.8635C24.9822 10.5848 24.9245 10.343 24.933 10.1647C24.9424 9.96767 25.0396 9.7328 25.261 9.51135L23.9882 8.23857ZM24.8632 6.88635C24.9719 6.99505 24.9645 7.03773 24.962 7.01784C24.9608 7.00772 24.9708 7.04503 24.9134 7.15997C24.7742 7.43833 24.4618 7.76498 23.9882 8.23857L25.261 9.51135C25.6624 9.10993 26.225 8.56158 26.5234 7.96494C26.6846 7.64238 26.8041 7.24219 26.7481 6.79458C26.691 6.33718 26.4648 5.94237 26.136 5.61357L24.8632 6.88635ZM23.1132 5.13635L24.8632 6.88635L26.136 5.61357L24.3861 3.86357L23.1132 5.13635ZM22.6361 5.13635C22.7202 5.0522 22.7776 5.02852 22.8012 5.02097C22.8257 5.01316 22.8505 5.01106 22.8832 5.01639C22.9199 5.02236 22.9655 5.03798 23.0145 5.06521C23.0647 5.09308 23.0996 5.12273 23.1132 5.13635L24.3861 3.86357C24.1384 3.61589 23.712 3.32762 23.1724 3.23978C22.577 3.14285 21.9207 3.30615 21.3633 3.86357L22.6361 5.13635ZM18.0972 6.17998C19.1552 6.70899 20.0818 6.76147 20.9121 6.42934C21.6613 6.12962 22.2277 5.54473 22.6361 5.13635L21.3633 3.86357C20.8967 4.33017 20.588 4.62029 20.2436 4.7581C19.9801 4.86349 19.5942 4.91599 18.9022 4.57002L18.0972 6.17998ZM16.7231 2.97862C16.7189 3.38104 16.7075 3.98449 16.8485 4.55022C16.9982 5.15137 17.3428 5.80278 18.0972 6.17998L18.9022 4.57002C18.7598 4.4988 18.6617 4.3825 18.5951 4.11515C18.5197 3.81238 18.5184 3.44653 18.523 2.99735L16.7231 2.97862ZM16.7248 2.75C16.7248 2.82113 16.724 2.89592 16.7231 2.97862L18.523 2.99735C18.5239 2.91653 18.5248 2.83216 18.5248 2.75H16.7248ZM15.8747 1.9C16.3761 1.9 16.5221 2.04672 16.572 2.10911C16.6525 2.20984 16.7248 2.40868 16.7248 2.75H18.5248C18.5248 2.21633 18.4219 1.54016 17.9775 0.984642C17.5024 0.390777 16.7734 0.1 15.8747 0.1V1.9ZM19.9333 15C19.9333 17.7246 17.7246 19.9333 15 19.9333V21.7333C18.7187 21.7333 21.7333 18.7187 21.7333 15H19.9333ZM15 10.0667C17.7246 10.0667 19.9333 12.2754 19.9333 15H21.7333C21.7333 11.2813 18.7187 8.26668 15 8.26668V10.0667ZM10.0666 15C10.0666 12.2754 12.2754 10.0667 15 10.0667V8.26668C11.2813 8.26668 8.26664 11.2813 8.26664 15H10.0666ZM15 19.9333C12.2754 19.9333 10.0666 17.7246 10.0666 15H8.26664C8.26664 18.7187 11.2813 21.7333 15 21.7333V19.9333Z" fill="black"/>
</svg>
