<svg width="30" height="30" viewBox="0 0 32 24" fill="none" xmlns="http://www.w3.org/2000/svg">
    <path d="M1 2.69231C1 1.33846 2.17647 1 2.76471 1H29.2353C30.6471 1 31 1.73671 31 2.69231V21.3077C31 22.6615 29.8235 23 29.2353 23H2.76471C1.35294 23 1 21.8718 1 21.3077V2.69231Z" stroke="black" stroke-width="2"/>
    <path d="M19.049 12.6135C19.049 12.6135 17.3452 14.1568 16.0001 14.1568C14.655 14.1568 12.9512 12.6135 12.9512 12.6135M19.049 12.6135L30.3479 1.64703M19.049 12.6135L30.3479 22.3529M12.9512 12.6135L1.65228 1.64703M12.9512 12.6135L1.65228 22.3529" stroke="black" stroke-width="2"/>
</svg>
