<svg width="42" height="46" viewBox="0 0 42 46" fill="none" xmlns="http://www.w3.org/2000/svg">
<path d="M5.07394 31.443C7.55908 35.2734 11.3343 38.0805 15.7113 39.3525L17.6471 34.1579C10.9412 32.0141 7.58823 27.7263 7.58823 21.2948C7.58823 13.7912 13.1765 7.35966 21 7.35966C28.8235 7.35966 34.4118 13.7912 34.4118 21.2948C34.4118 27.7263 31.2382 31.6301 27.8853 33.939L24.9524 27.2317L19.8544 39.123L32.2845 44L29.7183 38.1311C31.9536 37.0592 34.7724 34.9507 37.1666 31.0625C39.5607 27.1742 40.4815 22.5526 39.761 18.0404C39.0405 13.5281 36.7267 9.42587 33.2416 6.48163C29.7564 3.53739 25.3321 1.94731 20.7754 2.00133C16.2186 2.05536 11.8331 3.74989 8.41831 6.77593C5.00357 9.80198 2.78717 13.9579 2.17325 18.486C1.55933 23.0141 2.5888 27.6126 5.07394 31.443Z" fill="white" stroke="black" stroke-width="2.5" stroke-linejoin="round"/>
</svg>
