<svg width="20" height="20" viewBox="0 0 20 20" fill="none" xmlns="http://www.w3.org/2000/svg">
<path d="M1.48476 8.19238L8.09376 1.58338C9.07007 0.607069 10.653 0.607069 11.6293 1.58338L18.2383 8.19238C19.2146 9.16869 19.2146 10.7516 18.2383 11.7279L11.6293 18.3369C10.653 19.3132 9.07007 19.3132 8.09376 18.3369L1.48476 11.7279C0.508452 10.7516 0.508451 9.16869 1.48476 8.19238Z" fill="#83BBE5" stroke="black"/>
<path d="M5.75142 12.5854C6.39893 13.5787 7.38258 14.3066 8.52301 14.6364L9.02738 13.2894C7.28014 12.7335 6.40653 11.6216 6.40653 9.95386C6.40653 8.00811 7.86256 6.34032 9.90099 6.34032C11.9394 6.34032 13.3955 8.00811 13.3955 9.95386C13.3955 11.6216 12.5686 12.6339 11.695 13.2327L10.8911 11.8812L10.092 14.6364L12.3762 15.3465L12.1726 14.3197C12.755 14.0417 13.4894 13.495 14.1132 12.4867C14.737 11.4785 14.9769 10.28 14.7892 9.10995C14.6015 7.93988 13.9986 6.87611 13.0906 6.11264C12.1825 5.34916 11.0297 4.93684 9.84247 4.95085C8.6552 4.96486 7.51253 5.40427 6.62281 6.18896C5.73309 6.97364 5.1556 8.05133 4.99564 9.22551C4.83568 10.3997 5.10391 11.5921 5.75142 12.5854Z" fill="white" stroke="black" stroke-width="0.8" stroke-linejoin="round"/>
</svg>
