<svg width="20" height="30" viewBox="0 0 20 30" fill="none" xmlns="http://www.w3.org/2000/svg">
<path d="M9.64645 9.01313C9.84171 9.20839 10.1583 9.20839 10.3536 9.01313L13.5355 5.83115C13.7308 5.63589 13.7308 5.3193 13.5355 5.12404C13.3403 4.92878 13.0237 4.92878 12.8284 5.12404L10 7.95247L7.17157 5.12404C6.97631 4.92878 6.65973 4.92878 6.46447 5.12404C6.2692 5.3193 6.2692 5.63589 6.46447 5.83115L9.64645 9.01313ZM9.5 1V8.65958H10.5V1H9.5Z" fill="black"/>
<circle cx="10" cy="20" r="9.5" fill="#83BBE5" stroke="black"/>
<path d="M10.2269 13.6241L16.4674 24.1491C16.5488 24.2864 16.4613 24.5 16.2405 24.5H3.75954C3.53867 24.5 3.45118 24.2864 3.53261 24.1491L9.77307 13.6241C9.8712 13.4586 10.1288 13.4586 10.2269 13.6241Z" fill="black" stroke="black" stroke-linejoin="round"/>
<mask id="path-4-inside-1_259_76" fill="white">
<path d="M0 0H20V1H0V0Z"/>
</mask>
<path d="M0 0H20V1H0V0Z" fill="#83BBE5"/>
<path d="M20 0H0V2H20V0Z" fill="black" mask="url(#path-4-inside-1_259_76)"/>
</svg>
