<svg width="20" height="20" viewBox="0 0 20 20" fill="none" xmlns="http://www.w3.org/2000/svg">
<rect x="0.5" y="0.5" width="19" height="19" rx="4.5" stroke="black"/>
<path d="M3 5.76923C3 5.15385 3.54902 5 3.82353 5H16.1765C16.8353 5 17 5.33487 17 5.76923V14.2308C17 14.8462 16.451 15 16.1765 15H3.82353C3.16471 15 3 14.4872 3 14.2308V5.76923Z" stroke="black"/>
<path d="M11.4875 10.2963C11.4875 10.2963 10.6562 11.0417 10 11.0417C9.34375 11.0417 8.51249 10.2963 8.51249 10.2963M11.4875 10.2963L17 5M11.4875 10.2963L17 15M8.51249 10.2963L3 5M8.51249 10.2963L3 15" stroke="black"/>
</svg>
