<svg width="30" height="30" viewBox="0 0 30 30" fill="none" xmlns="http://www.w3.org/2000/svg">
<path d="M1 6.61538C1 5.32308 2.09804 5 2.64706 5H27.3529C28.6706 5 29 5.70322 29 6.61538V24.3846C29 25.6769 27.902 26 27.3529 26H2.64706C1.32941 26 1 24.9231 1 24.3846V6.61538Z" stroke="black" stroke-width="2"/>
<path d="M17.975 16.1222C17.975 16.1222 16.3125 17.6875 15 17.6875C13.6875 17.6875 12.025 16.1222 12.025 16.1222M17.975 16.1222L28.5 5.5L27.5 5H15H3L2 5.5L12.025 16.1222M17.975 16.1222L29 26M12.025 16.1222L1 26" stroke="black" stroke-width="2" stroke-linejoin="round"/>
</svg>
