<svg width="20" height="20" viewBox="0 0 20 20" fill="none" xmlns="http://www.w3.org/2000/svg">
<circle cx="10" cy="10" r="9.5" fill="#83BBE5" stroke="black" stroke-dasharray="2 2"/>
<path d="M5 6.61538C5 6.12308 5.39216 6 5.58824 6H14.4118C14.8824 6 15 6.26789 15 6.61538V13.3846C15 13.8769 14.6078 14 14.4118 14H5.58824C5.11765 14 5 13.5897 5 13.3846V6.61538Z" fill="white" stroke="black"/>
<path d="M11.0625 10.237C11.0625 10.237 10.4688 10.8333 10 10.8333C9.53125 10.8333 8.93749 10.237 8.93749 10.237M11.0625 10.237L15 6M11.0625 10.237L15 14M8.93749 10.237L5 6M8.93749 10.237L5 14" stroke="black"/>
</svg>
