<svg width="50" height="38" viewBox="0 0 50 38" fill="none" xmlns="http://www.w3.org/2000/svg">
<path d="M2 4.61538C2 2.52308 3.80392 2 4.70588 2H45.2941C47.4588 2 48 3.13855 48 4.61538V33.3846C48 35.4769 46.1961 36 45.2941 36H4.70588C2.54118 36 2 34.2564 2 33.3846V4.61538Z" fill="white" stroke="black" stroke-width="3"/>
<path d="M29.675 19.9482C29.675 19.9482 27.0625 22.3333 25 22.3333C22.9375 22.3333 20.325 19.9482 20.325 19.9482M29.675 19.9482L47 3M29.675 19.9482L47 35M20.325 19.9482L3 3M20.325 19.9482L3 35" stroke="black" stroke-width="3"/>
</svg>
