<svg width="20" height="20" viewBox="0 0 20 20" fill="none" xmlns="http://www.w3.org/2000/svg">
<rect x="0.5" y="0.5" width="19" height="19" rx="3.5" fill="#83BBE5" stroke="black"/>
<path d="M9.40002 13L10.6 8" stroke="black" stroke-linecap="round" stroke-linejoin="bevel"/>
<path d="M11.8 9.25L13 10.5L11.8 11.75" stroke="black" stroke-linecap="round" stroke-linejoin="round"/>
<path d="M8.19995 9.25L6.99995 10.5L8.19995 11.75" stroke="black" stroke-linecap="round" stroke-linejoin="round"/>
<path d="M13.9394 16C14.5455 16 15 15.4783 15 14.9565V8.17391C15 7.78261 14.8623 7.40316 14.4766 7.07115C14.0909 6.73913 11.9697 4.78261 11.5152 4.3913C11.0606 4 10.7576 4 10.1515 4H6.06061C5.30303 4 5 4.3913 5 4.91304V15.087C5 15.7391 5.30303 16 5.90909 16H13.9394Z" fill="white" stroke="black" stroke-linejoin="round"/>
<path d="M9.40002 13L10.6 8" stroke="black" stroke-linecap="round" stroke-linejoin="bevel"/>
<path d="M11.8 9.25L13 10.5L11.8 11.75" stroke="black" stroke-linecap="round" stroke-linejoin="round"/>
<path d="M8.19995 9.25L6.99995 10.5L8.19995 11.75" stroke="black" stroke-linecap="round" stroke-linejoin="round"/>
</svg>
