<svg width="20" height="20" viewBox="0 0 20 20" fill="none" xmlns="http://www.w3.org/2000/svg">
<rect x="0.5" y="0.5" width="19" height="19" rx="3.5" fill="#83BBE5" stroke="black"/>
<path fill-rule="evenodd" clip-rule="evenodd" d="M10.4374 3H9.56239C9.12489 3 8.6874 3.13125 8.6874 3.875C8.6874 4.575 8.6874 4.75 8.24989 5.1875C7.81242 5.625 7.2874 5.5375 6.93741 5.1875C6.49992 4.75 6.06242 4.3125 5.62493 4.75L4.74995 5.625C4.60412 5.77083 4.39995 6.15 4.74995 6.5C5.18743 6.93749 5.62495 7.37502 5.18746 8.25C4.96325 8.69843 4.41977 8.69277 3.99397 8.68834C3.9531 8.68791 3.91331 8.6875 3.87499 8.6875C3.43749 8.6875 3 8.8625 3 9.5625V10.4375C3 10.5833 3 11.3125 3.87499 11.3125C4.57497 11.3125 4.74997 11.3125 5.18746 11.75C5.62495 12.1875 5.53746 12.7125 5.18746 13.0625C4.74997 13.5 4.31248 13.9375 4.74997 14.375L5.62496 15.25C5.77079 15.3959 6.14995 15.6 6.49994 15.25C6.93742 14.8125 7.37494 14.375 8.24991 14.8125C8.69833 15.0367 8.69267 15.5802 8.68824 16.006C8.68782 16.0469 8.6874 16.0867 8.6874 16.125C8.6874 16.5625 8.8624 17 9.56239 17L10.4374 17C11.3124 17 11.3124 16.5625 11.3124 16.125C11.3124 15.425 11.3124 15.25 11.7499 14.8125C12.1874 14.375 12.7124 14.4625 13.0624 14.8125C13.4999 15.25 13.9374 15.6875 14.3748 15.25L15.2498 14.375C15.3957 14.2292 15.5998 13.85 15.2498 13.5C14.8123 13.0625 14.3748 12.625 14.8123 11.75C15.0346 11.3054 15.2878 11.3072 15.914 11.3115C15.98 11.312 16.0501 11.3125 16.1248 11.3125C16.7643 11.3125 16.9428 11.0208 16.9868 10.4375C17.0009 10.2506 17.0002 9.84118 16.9999 9.63304C16.9998 9.60575 16.9998 9.58192 16.9998 9.5625C16.9998 9.41667 16.9998 8.6875 16.1248 8.6875C15.4248 8.6875 15.2498 8.6875 14.8123 8.24998C14.3748 7.8125 14.4623 7.28748 14.8123 6.93748C15.2498 6.49998 15.6873 6.06248 15.2498 5.62498L14.3748 4.74998C14.229 4.60415 13.8498 4.39998 13.4998 4.74998C13.0624 5.18747 12.6248 5.62499 11.7499 5.1875C11.3015 4.96329 11.3071 4.41979 11.3115 3.99399C11.312 3.95311 11.3124 3.91332 11.3124 3.875C11.3124 3.4375 11.1374 3 10.4374 3ZM10 13.5C11.933 13.5 13.5 11.933 13.5 10C13.5 8.067 11.933 6.5 10 6.5C8.067 6.5 6.5 8.067 6.5 10C6.5 11.933 8.067 13.5 10 13.5Z" fill="white"/>
<path d="M8.24989 5.1875L7.89634 4.83394L7.89632 4.83396L8.24989 5.1875ZM6.93741 5.1875L6.58385 5.54105L6.58385 5.54105L6.93741 5.1875ZM5.62493 4.75L5.27138 4.39645L5.27138 4.39645L5.62493 4.75ZM4.74995 5.625L5.1035 5.97855L5.1035 5.97855L4.74995 5.625ZM4.74995 6.5L4.39639 6.85355L4.39639 6.85355L4.74995 6.5ZM5.18746 8.25L5.63468 8.4736L5.63468 8.4736L5.18746 8.25ZM3.99397 8.68834L3.99918 8.18837L3.99917 8.18837L3.99397 8.68834ZM5.18746 11.75L4.8339 12.1036L4.83392 12.1036L5.18746 11.75ZM5.18746 13.0625L5.54102 13.4161L5.54102 13.4161L5.18746 13.0625ZM4.74997 14.375L5.10353 14.0215L5.10353 14.0215L4.74997 14.375ZM5.62496 15.25L5.2714 15.6036L5.2714 15.6036L5.62496 15.25ZM6.49994 15.25L6.14638 14.8965L6.14638 14.8965L6.49994 15.25ZM8.24991 14.8125L8.0263 15.2597L8.0263 15.2597L8.24991 14.8125ZM8.68824 16.006L8.18827 16.0008L8.18827 16.0008L8.68824 16.006ZM9.56239 17L9.56239 16.5H9.56239V17ZM10.4374 17L10.4374 17.5H10.4374V17ZM11.7499 14.8125L12.1034 15.1661L12.1035 15.166L11.7499 14.8125ZM13.0624 14.8125L12.7088 15.1661L12.7088 15.1661L13.0624 14.8125ZM15.2498 14.375L14.8963 14.0214L14.8963 14.0215L15.2498 14.375ZM15.2498 13.5L15.6034 13.1465L15.6034 13.1465L15.2498 13.5ZM14.8123 11.75L15.2595 11.9736L15.2595 11.9736L14.8123 11.75ZM15.914 11.3115L15.9105 11.8115L15.9105 11.8115L15.914 11.3115ZM16.9868 10.4375L17.4854 10.4751L17.4854 10.4751L16.9868 10.4375ZM16.9999 9.63304L17.4999 9.6322L17.4999 9.6322L16.9999 9.63304ZM14.8123 8.24998L15.1659 7.89644L15.1659 7.89642L14.8123 8.24998ZM14.8123 6.93748L14.4588 6.58393L14.4588 6.58393L14.8123 6.93748ZM15.2498 5.62498L15.6034 5.27143L15.6034 5.27143L15.2498 5.62498ZM14.3748 4.74998L14.0213 5.10353L14.0213 5.10353L14.3748 4.74998ZM13.4998 4.74998L13.1463 4.39643L13.1463 4.39643L13.4998 4.74998ZM11.7499 5.1875L11.9735 4.74029L11.9735 4.74029L11.7499 5.1875ZM11.3115 3.99399L11.8115 3.99919L11.8115 3.99919L11.3115 3.99399ZM9.56239 3.5H10.4374V2.5H9.56239V3.5ZM9.1874 3.875C9.1874 3.60311 9.26265 3.55723 9.26505 3.55539C9.29513 3.53233 9.37497 3.5 9.56239 3.5V2.5C9.31231 2.5 8.95466 2.53329 8.65662 2.76179C8.3309 3.01151 8.1874 3.40313 8.1874 3.875H9.1874ZM8.60343 5.54106C8.84276 5.30174 9.02241 5.07671 9.11239 4.77077C9.19208 4.49987 9.1874 4.19664 9.1874 3.875H8.1874C8.1874 4.25336 8.18273 4.38763 8.15303 4.4886C8.13364 4.55454 8.09453 4.63576 7.89634 4.83394L8.60343 5.54106ZM6.58385 5.54105C6.83027 5.78747 7.1616 5.96437 7.53706 5.98225C7.92287 6.00062 8.29656 5.84796 8.60345 5.54104L7.89632 4.83396C7.76575 4.96454 7.65819 4.98688 7.58463 4.98338C7.50072 4.97938 7.39455 4.93753 7.29097 4.83395L6.58385 5.54105ZM5.97849 5.10355C6.02673 5.05531 6.03828 5.0655 6.01507 5.0684C5.99729 5.07063 6.00586 5.06199 6.05756 5.08784C6.11202 5.11507 6.18453 5.16577 6.28003 5.24933C6.3746 5.33208 6.47197 5.42916 6.58385 5.54105L7.29097 4.83395C7.09227 4.63525 6.81194 4.34699 6.50478 4.19341C6.33773 4.10989 6.12756 4.04656 5.89103 4.07613C5.64907 4.10637 5.44189 4.22594 5.27138 4.39645L5.97849 5.10355ZM5.1035 5.97855L5.97849 5.10355L5.27138 4.39645L4.39639 5.27145L5.1035 5.97855ZM5.1035 6.14645C5.06648 6.10942 5.0592 6.0875 5.05809 6.08402C5.05684 6.08011 5.05598 6.07575 5.05752 6.06627C5.05942 6.0546 5.06496 6.03724 5.07629 6.01684C5.08797 5.99581 5.09999 5.98206 5.1035 5.97855L4.39639 5.27145C4.2669 5.40094 4.11647 5.62325 4.07051 5.9056C4.0195 6.21896 4.10617 6.56332 4.39639 6.85355L5.1035 6.14645ZM5.63468 8.4736C5.90426 7.93443 5.93341 7.45613 5.76106 7.02524C5.6067 6.63937 5.30607 6.34902 5.1035 6.14645L4.39639 6.85355C4.63131 7.08847 4.76818 7.23563 4.83258 7.39664C4.87898 7.51264 4.90815 7.69059 4.74025 8.0264L5.63468 8.4736ZM3.98877 9.18831C4.18868 9.19039 4.497 9.19645 4.78717 9.12417C5.09702 9.04698 5.43758 8.86781 5.63468 8.4736L4.74025 8.0264C4.71313 8.08062 4.66985 8.12283 4.54545 8.15382C4.40138 8.18971 4.22506 8.19072 3.99918 8.18837L3.98877 9.18831ZM3.87499 9.1875C3.91024 9.1875 3.94737 9.18788 3.98877 9.18831L3.99917 8.18837C3.95882 8.18795 3.91637 8.1875 3.87499 8.1875V9.1875ZM3.5 9.5625C3.5 9.32285 3.56936 9.26607 3.58578 9.25293C3.62351 9.22275 3.70966 9.1875 3.87499 9.1875V8.1875C3.60282 8.1875 3.25148 8.23975 2.96108 8.47207C2.64938 8.72143 2.5 9.10215 2.5 9.5625H3.5ZM3.5 10.4375V9.5625H2.5V10.4375H3.5ZM3.87499 10.8125C3.72658 10.8125 3.65186 10.7821 3.61807 10.7627C3.58567 10.7441 3.56505 10.7209 3.54832 10.6903C3.50485 10.6106 3.5 10.5061 3.5 10.4375H2.5C2.5 10.5147 2.49515 10.8478 2.67042 11.1691C2.76307 11.339 2.90651 11.5072 3.1202 11.6299C3.3325 11.7518 3.5859 11.8125 3.87499 11.8125V10.8125ZM5.54103 11.3965C5.30172 11.1572 5.07669 10.9775 4.77075 10.8875C4.49984 10.8078 4.19662 10.8125 3.87499 10.8125V11.8125C4.25334 11.8125 4.38761 11.8172 4.48857 11.8469C4.5545 11.8663 4.63572 11.9054 4.8339 12.1036L5.54103 11.3965ZM5.54102 13.4161C5.78743 13.1697 5.96433 12.8383 5.9822 12.4629C6.00058 12.077 5.84792 11.7034 5.54101 11.3965L4.83392 12.1036C4.9645 12.2342 4.98684 12.3417 4.98334 12.4153C4.97934 12.4992 4.93749 12.6054 4.83391 12.709L5.54102 13.4161ZM5.10353 14.0215C5.05529 13.9732 5.06548 13.9617 5.06838 13.9849C5.0706 14.0027 5.06196 13.9941 5.08781 13.9424C5.11504 13.8879 5.16574 13.8154 5.24931 13.7199C5.33205 13.6253 5.42913 13.528 5.54102 13.4161L4.83391 12.709C4.63521 12.9077 4.34696 13.188 4.19338 13.4952C4.10986 13.6622 4.04654 13.8724 4.0761 14.1089C4.10634 14.3509 4.2259 14.5581 4.39641 14.7286L5.10353 14.0215ZM5.97851 14.8965L5.10353 14.0215L4.39641 14.7286L5.2714 15.6036L5.97851 14.8965ZM6.14638 14.8965C6.10936 14.9335 6.08743 14.9408 6.08396 14.9419C6.08006 14.9431 6.07569 14.944 6.06623 14.9425C6.05455 14.9406 6.0372 14.935 6.0168 14.9237C5.99577 14.912 5.98202 14.9 5.97851 14.8965L5.2714 15.6036C5.40089 15.7331 5.6232 15.8835 5.90555 15.9295C6.2189 15.9805 6.56327 15.8938 6.8535 15.6036L6.14638 14.8965ZM8.47352 14.3653C7.93435 14.0957 7.45605 14.0665 7.02516 14.2389C6.63929 14.3933 6.34895 14.6939 6.14638 14.8965L6.8535 15.6036C7.08841 15.3687 7.23557 15.2318 7.39657 15.1674C7.51256 15.121 7.6905 15.0918 8.0263 15.2597L8.47352 14.3653ZM9.18821 16.0112C9.19029 15.8113 9.19635 15.503 9.12407 15.2128C9.04689 14.903 8.86772 14.5624 8.47352 14.3653L8.0263 15.2597C8.08052 15.2868 8.12273 15.3301 8.15372 15.4545C8.18961 15.5986 8.19062 15.7749 8.18827 16.0008L9.18821 16.0112ZM9.1874 16.125C9.1874 16.0897 9.18778 16.0526 9.18821 16.0112L8.18827 16.0008C8.18785 16.0412 8.1874 16.0836 8.1874 16.125H9.1874ZM9.56239 16.5C9.32275 16.5 9.26597 16.4306 9.25284 16.4142C9.22265 16.3765 9.1874 16.2903 9.1874 16.125H8.1874C8.1874 16.3972 8.23965 16.7485 8.47196 17.0389C8.72132 17.3506 9.10204 17.5 9.56239 17.5V16.5ZM10.4374 16.5L9.56239 16.5L9.56239 17.5L10.4374 17.5L10.4374 16.5ZM10.8124 16.125C10.8124 16.2414 10.8116 16.3165 10.8031 16.3802C10.7951 16.4398 10.7843 16.4533 10.787 16.4492C10.8151 16.4071 10.8089 16.5 10.4374 16.5V17.5C10.9409 17.5 11.3722 17.3742 11.619 17.0039C11.8287 16.6894 11.8124 16.3006 11.8124 16.125H10.8124ZM11.3963 14.4589C11.157 14.6983 10.9774 14.9233 10.8874 15.2292C10.8077 15.5001 10.8124 15.8034 10.8124 16.125H11.8124C11.8124 15.7466 11.8171 15.6124 11.8468 15.5114C11.8661 15.4455 11.9053 15.3642 12.1034 15.1661L11.3963 14.4589ZM13.4159 14.459C13.1695 14.2125 12.8382 14.0356 12.4627 14.0178C12.0769 13.9994 11.7032 14.152 11.3963 14.459L12.1035 15.166C12.234 15.0355 12.3416 15.0131 12.4152 15.0166C12.4991 15.0206 12.6052 15.0625 12.7088 15.1661L13.4159 14.459ZM14.0213 14.8965C13.9731 14.9447 13.9615 14.9345 13.9847 14.9316C14.0025 14.9294 13.9939 14.938 13.9422 14.9122C13.8878 14.8849 13.8152 14.8342 13.7197 14.7507C13.6252 14.6679 13.5278 14.5708 13.4159 14.459L12.7088 15.1661C12.9075 15.3648 13.1878 15.653 13.495 15.8066C13.662 15.8901 13.8722 15.9534 14.1087 15.9239C14.3507 15.8936 14.5579 15.7741 14.7284 15.6036L14.0213 14.8965ZM14.8963 14.0215L14.0213 14.8965L14.7284 15.6036L15.6034 14.7286L14.8963 14.0215ZM14.8963 13.8536C14.9333 13.8906 14.9406 13.9125 14.9417 13.916C14.9429 13.9199 14.9438 13.9243 14.9423 13.9337C14.9404 13.9454 14.9348 13.9628 14.9235 13.9832C14.9118 14.0042 14.8998 14.0179 14.8963 14.0214L15.6034 14.7286C15.7329 14.5991 15.8833 14.3767 15.9293 14.0944C15.9803 13.781 15.8936 13.4367 15.6034 13.1465L14.8963 13.8536ZM14.3651 11.5264C14.0955 12.0656 14.0664 12.5439 14.2387 12.9748C14.3931 13.3606 14.6937 13.651 14.8963 13.8536L15.6034 13.1465C15.3685 12.9115 15.2316 12.7644 15.1672 12.6034C15.1208 12.4874 15.0916 12.3094 15.2595 11.9736L14.3651 11.5264ZM15.9175 10.8116C15.6384 10.8096 15.3223 10.8014 15.0583 10.8865C14.725 10.9939 14.5169 11.2228 14.3651 11.5264L15.2595 11.9736C15.299 11.8946 15.3259 11.8641 15.3367 11.8537C15.3427 11.848 15.3473 11.844 15.3651 11.8383C15.3909 11.83 15.4395 11.8201 15.5356 11.815C15.6326 11.8098 15.7492 11.8104 15.9105 11.8115L15.9175 10.8116ZM16.1248 10.8125C16.0521 10.8125 15.9836 10.812 15.9174 10.8116L15.9105 11.8115C15.9763 11.812 16.0481 11.8125 16.1248 11.8125V10.8125ZM16.4882 10.3999C16.4678 10.6712 16.42 10.7452 16.406 10.7609C16.4041 10.763 16.3965 10.7728 16.3623 10.7844C16.3225 10.7979 16.2496 10.8125 16.1248 10.8125V11.8125C16.5114 11.8125 16.8865 11.7245 17.1523 11.4266C17.3983 11.1507 17.4619 10.7872 17.4854 10.4751L16.4882 10.3999ZM16.4999 9.63388C16.5002 9.85306 16.5005 10.2374 16.4882 10.3999L17.4854 10.4751C17.5013 10.2638 17.5002 9.82929 17.4999 9.6322L16.4999 9.63388ZM16.4998 9.5625C16.4998 9.58243 16.4998 9.60673 16.4999 9.63388L17.4999 9.6322C17.4998 9.60476 17.4998 9.5814 17.4998 9.5625H16.4998ZM16.1248 9.1875C16.2732 9.1875 16.3479 9.21794 16.3817 9.23734C16.4141 9.25594 16.4347 9.27907 16.4515 9.30974C16.4949 9.38944 16.4998 9.49391 16.4998 9.5625H17.4998C17.4998 9.48526 17.5046 9.15222 17.3294 8.83089C17.2367 8.66104 17.0933 8.49276 16.8796 8.37009C16.6673 8.24821 16.4139 8.1875 16.1248 8.1875V9.1875ZM14.4588 8.60352C14.6981 8.84285 14.9231 9.0225 15.229 9.11249C15.4999 9.19218 15.8032 9.1875 16.1248 9.1875V8.1875C15.7464 8.1875 15.6122 8.18283 15.5112 8.15313C15.4453 8.13374 15.3641 8.09463 15.1659 7.89644L14.4588 8.60352ZM14.4588 6.58393C14.2123 6.83034 14.0355 7.16168 14.0176 7.53714C13.9992 7.92295 14.1519 8.29664 14.4588 8.60354L15.1659 7.89642C15.0353 7.76584 15.0129 7.65828 15.0164 7.58471C15.0204 7.50079 15.0623 7.39461 15.1659 7.29103L14.4588 6.58393ZM14.8963 5.97853C14.9445 6.02677 14.9343 6.03833 14.9314 6.01512C14.9292 5.99735 14.9378 6.00592 14.912 6.05762C14.8847 6.11209 14.834 6.1846 14.7505 6.2801C14.6677 6.37467 14.5706 6.47204 14.4588 6.58393L15.1659 7.29103C15.3646 7.09233 15.6528 6.81199 15.8064 6.50483C15.8899 6.33779 15.9532 6.12761 15.9237 5.89109C15.8934 5.64913 15.7739 5.44194 15.6034 5.27143L14.8963 5.97853ZM14.0213 5.10353L14.8963 5.97853L15.6034 5.27143L14.7284 4.39643L14.0213 5.10353ZM13.8534 5.10353C13.8904 5.0665 13.9123 5.05922 13.9158 5.05811C13.9197 5.05687 13.9241 5.056 13.9336 5.05754C13.9452 5.05944 13.9626 5.06498 13.983 5.07631C14.004 5.088 14.0178 5.10002 14.0213 5.10353L14.7284 4.39643C14.5989 4.26693 14.3766 4.1165 14.0942 4.07054C13.7809 4.01953 13.4365 4.1062 13.1463 4.39643L13.8534 5.10353ZM11.5263 5.63471C12.0654 5.9043 12.5437 5.93346 12.9746 5.76109C13.3605 5.60674 13.6508 5.3061 13.8534 5.10353L13.1463 4.39643C12.9114 4.63135 12.7642 4.76822 12.6032 4.83262C12.4872 4.87902 12.3093 4.90819 11.9735 4.74029L11.5263 5.63471ZM10.8116 3.98879C10.8095 4.1887 10.8034 4.49703 10.8757 4.7872C10.9529 5.09704 11.1321 5.43761 11.5263 5.63471L11.9735 4.74029C11.9193 4.71318 11.877 4.66989 11.8461 4.54549C11.8102 4.40141 11.8092 4.22508 11.8115 3.99919L10.8116 3.98879ZM10.8124 3.875C10.8124 3.91026 10.812 3.94739 10.8116 3.98879L11.8115 3.99919C11.8119 3.95884 11.8124 3.91639 11.8124 3.875H10.8124ZM10.4374 3.5C10.677 3.5 10.7338 3.56936 10.7469 3.58579C10.7771 3.62352 10.8124 3.70968 10.8124 3.875H11.8124C11.8124 3.60282 11.7601 3.25148 11.5278 2.96109C11.2784 2.64939 10.8977 2.5 10.4374 2.5V3.5ZM13 10C13 11.6569 11.6569 13 10 13V14C12.2091 14 14 12.2091 14 10H13ZM10 7C11.6569 7 13 8.34315 13 10H14C14 7.79086 12.2091 6 10 6V7ZM7 10C7 8.34315 8.34315 7 10 7V6C7.79086 6 6 7.79086 6 10H7ZM10 13C8.34315 13 7 11.6569 7 10H6C6 12.2091 7.79086 14 10 14V13Z" fill="black"/>
</svg>
