<svg width="20" height="20" viewBox="0 0 20 20" fill="none" xmlns="http://www.w3.org/2000/svg">
<rect x="0.5" y="0.5" width="19" height="19" rx="3.5" fill="#66CC72" stroke="black"/>
<path d="M9.6061 3.70001H10.3936C11.0236 3.70001 11.1811 4.09376 11.1811 4.48751C11.1811 4.88126 11.1325 5.4476 11.5748 5.66876C12.3623 6.06251 12.7561 5.66874 13.1498 5.27499C13.4648 4.95999 13.806 5.14374 13.9373 5.27499L14.7248 6.06249C15.1185 6.45624 14.7248 6.84999 14.331 7.24374C14.016 7.55874 13.9373 8.03126 14.331 8.42499C14.7248 8.81876 14.8823 8.81876 15.5123 8.81876C16.2998 8.81876 16.2998 9.47501 16.2998 9.60626C16.2998 9.757 16.3024 10.2035 16.2881 10.3938C16.2485 10.9188 16.0878 11.1813 15.5123 11.1813C14.8074 11.1813 14.5522 11.1327 14.331 11.575C13.9373 12.3625 14.3311 12.7563 14.7248 13.15C15.0398 13.465 14.8561 13.8063 14.7248 13.9375L13.9373 14.725C13.5436 15.1188 13.1498 14.725 12.7561 14.3313C12.4411 14.0163 11.9686 13.9375 11.5749 14.3313C11.1811 14.725 11.1811 14.8825 11.1811 15.5125C11.1811 15.9063 11.1811 16.3 10.3936 16.3L9.6061 16.3C8.97611 16.3 8.81861 15.9063 8.81861 15.5125C8.81861 15.1188 8.86719 14.5524 8.42487 14.3313C7.6374 13.9375 7.24363 14.3313 6.8499 14.725C6.5349 15.04 6.19366 14.8563 6.06241 14.725L5.27492 13.9375C4.88118 13.5438 5.27492 13.15 5.66867 12.7563C5.98366 12.4413 6.06241 11.9688 5.66867 11.575C5.27492 11.1813 5.11743 11.1813 4.48744 11.1813C3.69995 11.1813 3.69995 10.525 3.69995 10.3938V9.60626C3.69995 8.97626 4.09369 8.81876 4.48744 8.81876C4.88118 8.81876 5.44751 8.86734 5.66867 8.42501C6.0624 7.63753 5.66864 7.24376 5.2749 6.85001C4.95991 6.53501 5.14366 6.19376 5.2749 6.06251L6.06239 5.27501C6.45613 4.88126 6.84988 5.27501 7.24362 5.66876C7.55862 5.98376 8.03113 6.06251 8.42485 5.66876C8.81861 5.27501 8.81861 5.11751 8.81861 4.48751C8.81861 3.81813 9.21236 3.70001 9.6061 3.70001Z" fill="white" stroke="black"/>
<path d="M7.19995 8.60001H12.8M12.8 8.60001L10.9935 7.20001M12.8 8.60001L10.9935 10" stroke="black" stroke-width="0.8" stroke-linecap="round" stroke-linejoin="round"/>
<path d="M12.8 11.4L7.20005 11.4M7.20005 11.4L9.0065 12.8M7.20005 11.4L9.0065 9.99999" stroke="black" stroke-width="0.8" stroke-linecap="round" stroke-linejoin="round"/>
</svg>
