<svg width="20" height="30" viewBox="0 0 20 30" fill="none" xmlns="http://www.w3.org/2000/svg">
<mask id="path-1-inside-1_259_173" fill="white">
<path d="M20 28.9286L0 28.9286L8.74226e-08 30L20 30L20 28.9286Z"/>
</mask>
<path d="M20 28.9286L0 28.9286L8.74226e-08 30L20 30L20 28.9286Z" fill="#85C74E"/>
<path d="M1.69017e-07 31L20 31L20 29L5.82803e-09 29L1.69017e-07 31Z" fill="black" mask="url(#path-1-inside-1_259_173)"/>
<path d="M10.3536 20.6464C10.1583 20.4512 9.84171 20.4512 9.64645 20.6464L6.46447 23.8284C6.2692 24.0237 6.2692 24.3403 6.46447 24.5355C6.65973 24.7308 6.97631 24.7308 7.17157 24.5355L10 21.7071L12.8284 24.5355C13.0237 24.7308 13.3403 24.7308 13.5355 24.5355C13.7308 24.3403 13.7308 24.0237 13.5355 23.8284L10.3536 20.6464ZM10.5 29V21H9.5V29H10.5Z" fill="black"/>
<circle cx="10" cy="10" r="9.5" fill="#85C74E" stroke="black"/>
<path d="M6 11.2L11.3333 3L9.89744 8.8L14 8.6L8.66667 17L9.89744 11L6 11.2Z" fill="white" stroke="black" stroke-linejoin="round"/>
</svg>
