<svg width="30" height="30" viewBox="0 0 30 30" fill="none" xmlns="http://www.w3.org/2000/svg">
<g clip-path="url(#clip0_224_148)">
<path d="M14.156 1.5H15.8435C17.1935 1.5 17.531 2.34375 17.531 3.1875C17.531 4.03125 17.4269 5.24483 18.3748 5.71875C20.0622 6.56249 20.906 5.71869 21.7497 4.87496C22.4247 4.19996 23.1559 4.59371 23.4372 4.87496L25.1246 6.56246C25.9684 7.40621 25.1246 8.24996 24.2809 9.09371C23.6059 9.76871 23.4372 10.7813 24.2809 11.625C25.1246 12.4688 25.4621 12.4688 26.8121 12.4688C28.4996 12.4688 28.4996 13.875 28.4996 14.1563C28.4996 14.4792 28.5053 15.436 28.4746 15.8438C28.3897 16.9688 28.0454 17.5313 26.8121 17.5313C25.3016 17.5313 24.7548 17.4272 24.2809 18.375C23.4372 20.0625 24.281 20.9063 25.1247 21.75C25.7997 22.425 25.4059 23.1562 25.1247 23.4375L23.4372 25.125C22.5935 25.9688 21.7497 25.125 20.906 24.2812C20.231 23.6062 19.2185 23.4375 18.3748 24.2812C17.531 25.125 17.531 25.4625 17.531 26.8125C17.531 27.6562 17.531 28.5 15.8435 28.5L14.156 28.5C12.8061 28.5 12.4686 27.6562 12.4686 26.8125C12.4686 25.9687 12.5727 24.7552 11.6248 24.2812C9.93738 23.4375 9.09361 24.2813 8.24988 25.125C7.5749 25.8 6.84366 25.4063 6.56241 25.125L4.87494 23.4375C4.03121 22.5938 4.87494 21.75 5.71868 20.9063C6.39367 20.2313 6.56241 19.2188 5.71868 18.375C4.87494 17.5312 4.53745 17.5312 3.18747 17.5312C1.5 17.5312 1.5 16.125 1.5 15.8438V14.1562C1.5 12.8062 2.34374 12.4688 3.18747 12.4688C4.03121 12.4688 5.24476 12.5728 5.71868 11.625C6.5624 9.93753 5.71862 9.09374 4.8749 8.25C4.19991 7.575 4.59365 6.84375 4.8749 6.5625L6.56237 4.875C7.40611 4.03125 8.24984 4.875 9.09358 5.71875C9.76857 6.39375 10.7811 6.5625 11.6248 5.71875C12.4686 4.875 12.4686 4.5375 12.4686 3.1875C12.4686 1.75312 13.3123 1.5 14.156 1.5Z" stroke="black" stroke-width="2"/>
<path d="M9 12H21M21 12L17.129 9M21 12L17.129 15" stroke="black" stroke-width="1.5" stroke-linecap="round" stroke-linejoin="round"/>
<path d="M21 18L9 18M9 18L12.871 21M9 18L12.871 15" stroke="black" stroke-width="1.5" stroke-linecap="round" stroke-linejoin="round"/>
</g>
<defs>
<clipPath id="clip0_224_148">
<rect width="30" height="30" fill="white"/>
</clipPath>
</defs>
</svg>
