<svg width="44" height="44" viewBox="0 0 44 44" fill="none" xmlns="http://www.w3.org/2000/svg">
<path fill-rule="evenodd" clip-rule="evenodd" d="M23.3121 1L20.6872 1C19.3747 1 18.0622 1.39374 18.0622 3.625C18.0622 5.725 18.0622 6.25 16.7497 7.5625C15.4373 8.875 13.8622 8.6125 12.8122 7.5625C11.4998 6.25 10.1873 4.9375 8.8748 6.25L6.24984 8.875C5.81235 9.3125 5.19986 10.45 6.24984 11.5C7.5623 12.8125 8.87484 14.125 7.56239 16.75C6.88976 18.0953 5.25931 18.0783 3.98192 18.065C3.85929 18.0637 3.73992 18.0625 3.62496 18.0625C2.31248 18.0625 1 18.5875 1 20.6875V23.3125C1 23.75 1 25.9375 3.62496 25.9375C5.72492 25.9375 6.24991 25.9375 7.56239 27.2501C8.87487 28.5625 8.61237 30.1376 7.56239 31.1876C6.24991 32.5001 4.93743 33.8126 6.24991 35.1251L8.87487 37.7501C9.31236 38.1876 10.4498 38.8001 11.4998 37.7501C12.8123 36.4376 14.1248 35.125 16.7497 36.4375C18.095 37.1101 18.078 38.7406 18.0647 40.018C18.0634 40.1407 18.0622 40.26 18.0622 40.375C18.0622 41.6875 18.5872 43 20.6872 43L23.3122 43C25.9371 43 25.9371 41.6875 25.9371 40.375C25.9371 38.275 25.9371 37.75 27.2497 36.4375C28.5621 35.125 30.1371 35.3875 31.1871 36.4375C32.4996 37.75 33.8121 39.0625 35.1246 37.75L37.7495 35.125C38.187 34.6875 38.7995 33.55 37.7495 32.5C36.4371 31.1875 35.1245 29.875 36.437 27.25C37.1039 25.9162 37.8635 25.9215 39.7419 25.9346C39.9399 25.936 40.1503 25.9375 40.3744 25.9375C42.2929 25.9375 42.8285 25.0625 42.9604 23.3125C43.0027 22.7517 43.0006 21.5235 42.9996 20.8991C42.9995 20.8172 42.9993 20.7457 42.9993 20.6875C42.9993 20.25 42.9994 18.0625 40.3744 18.0625C38.2744 18.0625 37.7494 18.0625 36.437 16.7499C35.1245 15.4375 35.387 13.8624 36.437 12.8124C37.7494 11.4999 39.0619 10.1874 37.7494 8.87494L35.1245 6.24994C34.687 5.81244 33.5495 5.19994 32.4995 6.24994C31.1871 7.56241 29.8745 8.87498 27.2496 7.5625C25.9044 6.88986 25.9213 5.25938 25.9346 3.98197C25.9359 3.85934 25.9371 3.73997 25.9371 3.625C25.9371 2.3125 25.4121 1 23.3121 1ZM22 30.75C26.8325 30.75 30.75 26.8325 30.75 22C30.75 17.1675 26.8325 13.25 22 13.25C17.1675 13.25 13.25 17.1675 13.25 22C13.25 26.8325 17.1675 30.75 22 30.75Z" fill="white"/>
<path d="M20.6872 1L20.6872 0H20.6872V1ZM23.3121 1V2V1ZM16.7497 7.5625L16.0426 6.85538L16.0425 6.85542L16.7497 7.5625ZM12.8122 7.5625L12.1051 8.2696L12.1051 8.2696L12.8122 7.5625ZM6.24984 8.875L5.54273 8.1679V8.1679L6.24984 8.875ZM6.24984 11.5L5.54273 12.2071H5.54273L6.24984 11.5ZM7.56239 16.75L8.45682 17.1972V17.1972L7.56239 16.75ZM3.98192 18.065L3.99233 17.0651H3.99232L3.98192 18.065ZM7.56239 27.2501L6.85526 27.9571L6.85529 27.9572L7.56239 27.2501ZM7.56239 31.1876L8.2695 31.8947H8.2695L7.56239 31.1876ZM6.24991 35.1251L6.95702 34.418L6.24991 35.1251ZM8.87487 37.7501L9.58198 37.043L8.87487 37.7501ZM11.4998 37.7501L12.2069 38.4572L11.4998 37.7501ZM16.7497 36.4375L16.3025 37.3319H16.3025L16.7497 36.4375ZM18.0647 40.018L17.0648 40.0076L18.0647 40.018ZM20.6872 43L20.6872 42H20.6872V43ZM23.3122 43L23.3122 44H23.3122V43ZM27.2497 36.4375L27.9568 37.1446L27.9568 37.1446L27.2497 36.4375ZM31.1871 36.4375L31.8942 35.7304L31.1871 36.4375ZM37.7495 32.5L38.4566 31.7929L37.7495 32.5ZM36.437 27.25L35.5425 26.8028V26.8028L36.437 27.25ZM39.7419 25.9346L39.7489 24.9347H39.7489L39.7419 25.9346ZM42.9604 23.3125L41.9632 23.2373V23.2373L42.9604 23.3125ZM42.9996 20.8991L43.9996 20.8974V20.8974L42.9996 20.8991ZM36.437 16.7499L37.1441 16.0429L37.1441 16.0428L36.437 16.7499ZM36.437 12.8124L35.7298 12.1053L35.7298 12.1053L36.437 12.8124ZM37.7494 8.87494L37.0423 9.58204L37.7494 8.87494ZM35.1245 6.24994L35.8316 5.54283L35.1245 6.24994ZM32.4995 6.24994L31.7924 5.54283L31.7924 5.54283L32.4995 6.24994ZM27.2496 7.5625L27.6968 6.66808L27.2496 7.5625ZM25.9346 3.98197L26.9346 3.99238V3.99238L25.9346 3.98197ZM20.6872 2L23.3121 2L23.3121 2.5034e-06L20.6872 0L20.6872 2ZM19.0622 3.625C19.0622 2.70935 19.3221 2.39884 19.4909 2.26938C19.7152 2.09748 20.0936 2 20.6872 2V0C19.9683 0 19.0342 0.0993917 18.2741 0.682173C17.4586 1.3074 17.0622 2.30939 17.0622 3.625H19.0622ZM17.4568 8.26962C18.1542 7.57223 18.6228 6.96906 18.8575 6.17124C19.0716 5.44348 19.0622 4.61829 19.0622 3.625H17.0622C17.0622 4.73171 17.0529 5.21902 16.9388 5.60689C16.8453 5.9247 16.6577 6.24027 16.0426 6.85538L17.4568 8.26962ZM12.1051 8.2696C12.7729 8.93743 13.6544 9.40061 14.635 9.44731C15.6363 9.49499 16.6243 9.10216 17.4568 8.26958L16.0425 6.85542C15.5626 7.33534 15.1069 7.46751 14.7301 7.44957C14.3326 7.43064 13.9015 7.23757 13.5193 6.8554L12.1051 8.2696ZM9.58191 6.9571C9.78776 6.75125 9.92025 6.71694 9.98319 6.70907C10.057 6.69985 10.1835 6.70991 10.3963 6.8163C10.8757 7.05601 11.4088 7.57325 12.1051 8.2696L13.5193 6.8554C12.9032 6.23925 12.1238 5.44399 11.2907 5.02745C10.8473 4.80571 10.3175 4.65172 9.73512 4.72452C9.14183 4.79868 8.61808 5.0925 8.16769 5.5429L9.58191 6.9571ZM6.95696 9.5821L9.58191 6.9571L8.16769 5.5429L5.54273 8.1679L6.95696 9.5821ZM6.95696 10.7929C6.79541 10.6313 6.72798 10.4982 6.69796 10.4042C6.66767 10.3093 6.6632 10.2158 6.67905 10.1185C6.71472 9.89933 6.85136 9.6877 6.95696 9.5821L5.54273 8.1679C5.21083 8.4998 4.82248 9.07567 4.70503 9.79714C4.57749 10.5806 4.78728 11.4516 5.54273 12.2071L6.95696 10.7929ZM8.45682 17.1972C9.21473 15.6814 9.27303 14.3966 8.81893 13.2614C8.40085 12.2162 7.58084 11.4168 6.95696 10.7929L5.54273 12.2071C6.2313 12.8957 6.7238 13.4088 6.96198 14.0042C7.16416 14.5097 7.2225 15.1937 6.66796 16.3028L8.45682 17.1972ZM3.97151 19.065C4.58423 19.0713 5.4432 19.086 6.24065 18.8873C7.07747 18.6789 7.95052 18.2098 8.45682 17.1972L6.66796 16.3028C6.50163 16.6355 6.22314 16.8306 5.75722 16.9466C5.25195 17.0725 4.657 17.072 3.99233 17.0651L3.97151 19.065ZM3.62496 19.0625C3.73379 19.0625 3.84784 19.0637 3.97151 19.065L3.99232 17.0651C3.87074 17.0638 3.74604 17.0625 3.62496 17.0625V19.0625ZM2 20.6875C2 19.8582 2.2481 19.5259 2.445 19.3684C2.68451 19.1768 3.07556 19.0625 3.62496 19.0625V17.0625C2.86187 17.0625 1.94045 17.2107 1.1956 17.8066C0.408142 18.4366 0 19.4168 0 20.6875H2ZM2 23.3125V20.6875H0V23.3125H2ZM3.62496 24.9375C3.1094 24.9375 2.7959 24.8311 2.60528 24.7216C2.41743 24.6138 2.29416 24.4718 2.20602 24.3102C2.00969 23.9503 2 23.5226 2 23.3125H0C0 23.5399 -0.00969255 24.4247 0.450221 25.2679C0.690198 25.7079 1.05911 26.1401 1.60953 26.4561C2.15718 26.7705 2.82803 26.9375 3.62496 26.9375V24.9375ZM8.26952 26.543C7.57215 25.8456 6.96898 25.3769 6.17116 25.1422C5.44342 24.9282 4.61823 24.9375 3.62496 24.9375V26.9375C4.73165 26.9375 5.21894 26.9468 5.6068 27.0609C5.92459 27.1544 6.24015 27.342 6.85526 27.9571L8.26952 26.543ZM8.2695 31.8947C8.93732 31.2268 9.40049 30.3454 9.44718 29.3648C9.49486 28.3635 9.10205 27.3755 8.26948 26.5429L6.85529 27.9572C7.33521 28.4371 7.46739 28.8928 7.44944 29.2697C7.43051 29.6672 7.23744 30.0983 6.85528 30.4805L8.2695 31.8947ZM6.95702 34.418C6.75118 34.2121 6.71687 34.0796 6.709 34.0167C6.69977 33.9428 6.70983 33.8163 6.81622 33.6035C7.05593 33.1241 7.57317 32.591 8.2695 31.8947L6.85528 30.4805C6.23913 31.0966 5.44389 31.876 5.02736 32.7091C4.80563 33.1526 4.65164 33.6823 4.72444 34.2647C4.7986 34.858 5.09241 35.3818 5.5428 35.8322L6.95702 34.418ZM9.58198 37.043L6.95702 34.418L5.5428 35.8322L8.16775 38.4572L9.58198 37.043ZM10.7927 37.043C10.6312 37.2045 10.498 37.2719 10.404 37.302C10.3091 37.3323 10.2157 37.3367 10.1183 37.3209C9.8992 37.2852 9.68757 37.1486 9.58198 37.043L8.16775 38.4572C8.49965 38.7891 9.07552 39.1774 9.79698 39.2949C10.5805 39.4224 11.4515 39.2126 12.2069 38.4572L10.7927 37.043ZM17.197 35.5431C15.6811 34.7851 14.3964 34.7268 13.2612 35.181C12.216 35.5991 11.4166 36.4191 10.7927 37.043L12.2069 38.4572C12.8955 37.7686 13.4086 37.2761 14.004 37.0379C14.5094 36.8357 15.1934 36.7774 16.3025 37.3319L17.197 35.5431ZM19.0647 40.0284C19.071 39.4157 19.0857 38.5567 18.887 37.7593C18.6786 36.9224 18.2096 36.0494 17.1969 35.5431L16.3025 37.3319C16.6352 37.4982 16.8303 37.7767 16.9463 38.2427C17.0722 38.748 17.0717 39.3429 17.0648 40.0076L19.0647 40.0284ZM19.0622 40.375C19.0622 40.2662 19.0634 40.1521 19.0647 40.0284L17.0648 40.0076C17.0635 40.1292 17.0622 40.2539 17.0622 40.375H19.0622ZM20.6872 42C19.8579 42 19.5256 41.7519 19.3681 41.555C19.1765 41.3155 19.0622 40.9244 19.0622 40.375H17.0622C17.0622 41.1381 17.2105 42.0595 17.8063 42.8044C18.4363 43.5918 19.4165 44 20.6872 44V42ZM23.3122 42L20.6872 42L20.6872 44L23.3122 44L23.3122 42ZM24.9371 40.375C24.9371 41.1176 24.9046 41.4336 24.777 41.625C24.7238 41.7048 24.4926 42 23.3122 42V44C24.7567 44 25.838 43.639 26.4411 42.7344C26.9697 41.9414 26.9371 40.9449 26.9371 40.375H24.9371ZM26.5426 35.7304C25.8452 36.4278 25.3765 37.0309 25.1418 37.8288C24.9278 38.5565 24.9371 39.3817 24.9371 40.375H26.9371C26.9371 39.2683 26.9465 38.781 27.0606 38.3931C27.1541 38.0753 27.3416 37.7597 27.9568 37.1446L26.5426 35.7304ZM31.8942 35.7304C31.2264 35.0626 30.345 34.5994 29.3644 34.5527C28.3631 34.505 27.3751 34.8978 26.5426 35.7304L27.9568 37.1446C28.4367 36.6647 28.8924 36.5325 29.2692 36.5504C29.6667 36.5694 30.0978 36.7624 30.48 37.1446L31.8942 35.7304ZM34.4174 37.0429C34.2116 37.2487 34.0791 37.2831 34.0162 37.2909C33.9423 37.3002 33.8158 37.2901 33.6031 37.1837C33.1236 36.944 32.5906 36.4267 31.8942 35.7304L30.48 37.1446C31.0961 37.7608 31.8756 38.556 32.7086 38.9725C33.1521 39.1943 33.6818 39.3483 34.2642 39.2755C34.8575 39.2013 35.3813 38.9075 35.8317 38.4571L34.4174 37.0429ZM37.0424 34.4179L34.4174 37.0429L35.8317 38.4571L38.4566 35.8321L37.0424 34.4179ZM37.0424 33.2071C37.2039 33.3687 37.2714 33.5018 37.3014 33.5958C37.3317 33.6907 37.3361 33.7842 37.3203 33.8815C37.2846 34.1007 37.148 34.3123 37.0424 34.4179L38.4566 35.8321C38.7885 35.5002 39.1769 34.9243 39.2943 34.2029C39.4219 33.4194 39.2121 32.5484 38.4566 31.7929L37.0424 33.2071ZM35.5425 26.8028C34.7846 28.3186 34.7263 29.6034 35.1804 30.7386C35.5985 31.7838 36.4185 32.5832 37.0424 33.2071L38.4566 31.7929C37.7681 31.1043 37.2756 30.5912 37.0374 29.9958C36.8352 29.4904 36.7768 28.8063 37.3314 27.6972L35.5425 26.8028ZM39.7489 24.9347C38.8777 24.9286 38.0257 24.9107 37.3284 25.1354C36.4923 25.4049 35.9573 25.9732 35.5425 26.8028L37.3314 27.6972C37.5835 27.193 37.7618 27.097 37.9419 27.039C38.2607 26.9362 38.7277 26.9276 39.7349 26.9346L39.7489 24.9347ZM40.3744 24.9375C40.1543 24.9375 39.9472 24.9361 39.7489 24.9347L39.7349 26.9346C39.9325 26.936 40.1463 26.9375 40.3744 26.9375V24.9375ZM41.9632 23.2373C41.9003 24.0715 41.7493 24.4383 41.5911 24.6156C41.4722 24.7489 41.1999 24.9375 40.3744 24.9375V26.9375C41.4674 26.9375 42.4221 26.6886 43.0837 25.9469C43.7059 25.2492 43.8885 24.3035 43.9576 23.3877L41.9632 23.2373ZM41.9996 20.9008C42.0007 21.5473 42.0019 22.7253 41.9632 23.2373L43.9576 23.3877C44.0035 22.7782 44.0006 21.4997 43.9996 20.8974L41.9996 20.9008ZM41.9993 20.6875C41.9993 20.7468 41.9995 20.8192 41.9996 20.9008L43.9996 20.8974C43.9995 20.8153 43.9993 20.7447 43.9993 20.6875H41.9993ZM40.3744 19.0625C40.8899 19.0625 41.2035 19.169 41.3941 19.2784C41.5819 19.3862 41.7052 19.5282 41.7933 19.6898C41.9897 20.0497 41.9993 20.4774 41.9993 20.6875H43.9993C43.9993 20.4601 44.009 19.5753 43.5491 18.7321C43.3092 18.2921 42.9402 17.8599 42.3898 17.5439C41.8422 17.2295 41.1713 17.0625 40.3744 17.0625V19.0625ZM35.7298 17.457C36.4272 18.1544 37.0304 18.6231 37.8282 18.8578C38.5559 19.0719 39.3811 19.0625 40.3744 19.0625V17.0625C39.2677 17.0625 38.7804 17.0532 38.3926 16.9391C38.0748 16.8456 37.7592 16.658 37.1441 16.0429L35.7298 17.457ZM35.7298 12.1053C35.062 12.7732 34.5989 13.6546 34.5522 14.6352C34.5045 15.6365 34.8973 16.6245 35.7299 17.4571L37.1441 16.0428C36.6641 15.5629 36.532 15.1072 36.5499 14.7303C36.5688 14.3328 36.7619 13.9017 37.1441 13.5195L35.7298 12.1053ZM37.0423 9.58204C37.2482 9.78788 37.2825 9.92038 37.2904 9.98334C37.2996 10.0572 37.2895 10.1837 37.1831 10.3965C36.9434 10.8759 36.4262 11.409 35.7298 12.1053L37.1441 13.5195C37.7602 12.9034 38.5555 12.124 38.972 11.2909C39.1937 10.8474 39.3477 10.3177 39.2749 9.73528C39.2007 9.14199 38.9069 8.61824 38.4565 8.16783L37.0423 9.58204ZM34.4174 6.95704L37.0423 9.58204L38.4565 8.16784L35.8316 5.54283L34.4174 6.95704ZM33.2066 6.95704C33.3682 6.79549 33.5014 6.72806 33.5954 6.69804C33.6902 6.66775 33.7837 6.66329 33.881 6.67913C34.1002 6.7148 34.3118 6.85144 34.4174 6.95704L35.8316 5.54283C35.4997 5.21093 34.9238 4.82257 34.2024 4.70512C33.4189 4.57757 32.5479 4.78737 31.7924 5.54283L33.2066 6.95704ZM26.8024 8.45693C28.3182 9.21485 29.6029 9.27315 30.7381 8.81905C31.7833 8.40095 32.5828 7.58093 33.2066 6.95704L31.7924 5.54283C31.1038 6.23142 30.5908 6.72392 29.9953 6.96211C29.4899 7.16428 28.8059 7.22263 27.6968 6.66808L26.8024 8.45693ZM24.9347 3.97157C24.9283 4.58429 24.9137 5.44327 25.1123 6.24073C25.3208 7.07755 25.7898 7.95061 26.8024 8.45693L27.6968 6.66808C27.3642 6.50175 27.1691 6.22325 27.053 5.75732C26.9271 5.25203 26.9276 4.65706 26.9346 3.99238L24.9347 3.97157ZM24.9371 3.625C24.9371 3.73384 24.936 3.84789 24.9347 3.97157L26.9346 3.99238C26.9358 3.87079 26.9371 3.74609 26.9371 3.625H24.9371ZM23.3121 2C24.1414 2 24.4737 2.2481 24.6313 2.44502C24.8229 2.68454 24.9371 3.07561 24.9371 3.625H26.9371C26.9371 2.86189 26.7889 1.94046 26.193 1.19561C25.563 0.408157 24.5828 2.563e-06 23.3121 2.5034e-06V2ZM29.75 22C29.75 26.2802 26.2802 29.75 22 29.75V31.75C27.3848 31.75 31.75 27.3848 31.75 22H29.75ZM22 14.25C26.2802 14.25 29.75 17.7198 29.75 22H31.75C31.75 16.6152 27.3848 12.25 22 12.25V14.25ZM14.25 22C14.25 17.7198 17.7198 14.25 22 14.25V12.25C16.6152 12.25 12.25 16.6152 12.25 22H14.25ZM22 29.75C17.7198 29.75 14.25 26.2802 14.25 22H12.25C12.25 27.3848 16.6152 31.75 22 31.75V29.75Z" fill="black"/>
</svg>
