<svg width="31" height="21" viewBox="0 0 31 21" fill="none" xmlns="http://www.w3.org/2000/svg">
<path d="M9.31818 10.2545C9.51344 10.0592 9.51344 9.74266 9.31818 9.5474L6.1362 6.36542C5.94094 6.17016 5.62435 6.17016 5.42909 6.36542C5.23383 6.56068 5.23383 6.87727 5.42909 7.07253L8.25752 9.90095L5.42909 12.7294C5.23383 12.9246 5.23383 13.2412 5.42909 13.4365C5.62435 13.6318 5.94094 13.6318 6.1362 13.4365L9.31818 10.2545ZM1.12048 10.401L8.96463 10.401L8.96463 9.40095L1.12048 9.40096L1.12048 10.401Z" fill="black"/>
<mask id="path-2-inside-1_259_137" fill="white">
<path d="M0 20L-8.74228e-07 -1.52588e-05L1 -1.53025e-05L1 20L0 20Z"/>
</mask>
<path d="M-3.97627e-08 -1.52588e-05L8.34465e-07 20L2 20L2 -1.53462e-05L-3.97627e-08 -1.52588e-05Z" fill="black" mask="url(#path-2-inside-1_259_137)"/>
<path d="M11.4749 8.19239L18.1924 1.47488C19.1687 0.498567 20.7516 0.498567 21.7279 1.47488L28.4454 8.19239C29.4217 9.1687 29.4217 10.7516 28.4454 11.7279L21.7279 18.4454C20.7516 19.4218 19.1687 19.4218 18.1924 18.4454L11.4749 11.7279C10.4986 10.7516 10.4986 9.1687 11.4749 8.19239Z" fill="#83BBE5" stroke="black"/>
</svg>
