<svg width="20" height="20" viewBox="0 0 20 20" fill="none" xmlns="http://www.w3.org/2000/svg">
<rect x="0.5" y="0.5" width="19" height="19" rx="4.5" stroke="black"/>
<path d="M8.33321 5.41666L7.97966 5.0631L7.97964 5.06312L8.33321 5.41666ZM7.08323 5.41666L6.72967 5.77021L6.72967 5.77021L7.08323 5.41666ZM5.83325 4.99999L5.47969 4.64644L5.47969 4.64644L5.83325 4.99999ZM4.99993 5.83333L4.64637 5.47978L4.64637 5.47978L4.99993 5.83333ZM4.99993 6.66666L4.64637 7.02021L4.64637 7.02021L4.99993 6.66666ZM5.41661 8.33333L4.9694 8.10972L4.9694 8.10972L5.41661 8.33333ZM4.27995 8.75079L4.27475 9.25077L4.27475 9.25077L4.27995 8.75079ZM5.41661 11.6667L5.06304 12.0202L5.06306 12.0202L5.41661 11.6667ZM5.41661 12.9167L5.06305 12.5631L5.06305 12.5631L5.41661 12.9167ZM4.99995 14.1667L4.64639 14.5202L4.64639 14.5202L4.99995 14.1667ZM5.83327 15L6.18683 14.6465L6.18683 14.6465L5.83327 15ZM6.66659 15L6.31303 14.6465L6.31303 14.6465L6.66659 15ZM8.33323 14.5833L8.10962 15.0305L8.10962 15.0305L8.33323 14.5833ZM8.75069 15.72L9.25066 15.7252L9.25066 15.7252L8.75069 15.72ZM9.58321 16.6667L9.58321 16.1667H9.58321V16.6667ZM10.4165 16.6667L10.4165 17.1667H10.4165V16.6667ZM11.6665 14.5833L12.0201 14.9369L12.0201 14.9369L11.6665 14.5833ZM12.9165 14.5833L13.2701 14.2298L13.2701 14.2298L12.9165 14.5833ZM14.1665 15L14.5201 15.3535L14.1665 15ZM14.9998 14.1667L14.6463 13.8131L14.6463 13.8131L14.9998 14.1667ZM14.9998 13.3333L15.3534 12.9798L15.3534 12.9798L14.9998 13.3333ZM14.5831 11.6667L15.0304 11.8903L15.0304 11.8903L14.5831 11.6667ZM15.6323 11.2491L15.6358 10.7491L15.6358 10.7491L15.6323 11.2491ZM16.6541 10.4167L17.1527 10.4543L17.1527 10.4543L16.6541 10.4167ZM16.6665 9.65051L17.1665 9.64968L17.1665 9.64967L16.6665 9.65051ZM14.5831 8.33331L14.9367 7.97977L14.9367 7.97975L14.5831 8.33331ZM14.5831 7.08331L14.2296 6.72976L14.2296 6.72976L14.5831 7.08331ZM14.9998 5.83331L15.3534 5.47976L15.3534 5.47976L14.9998 5.83331ZM14.1665 4.99997L13.8129 5.35352L13.8129 5.35352L14.1665 4.99997ZM13.3332 4.99997L12.9796 4.64642L12.9796 4.64642L13.3332 4.99997ZM11.6665 5.41666L11.4429 5.86387L11.4429 5.86387L11.6665 5.41666ZM11.2491 4.27999L10.7491 4.27478L10.7491 4.27478L11.2491 4.27999ZM9.58321 3.83333H10.4165V2.83333H9.58321V3.83333ZM9.24989 4.16666C9.24989 4.03686 9.26918 3.96381 9.28423 3.92704C9.29744 3.89477 9.3091 3.88532 9.31452 3.88117C9.33678 3.8641 9.4062 3.83333 9.58321 3.83333V2.83333C9.34355 2.83333 8.99631 2.86506 8.70608 3.08757C8.38817 3.3313 8.24989 3.7125 8.24989 4.16666H9.24989ZM8.68675 5.77022C8.91566 5.54132 9.0901 5.32358 9.17748 5.0265C9.25456 4.76445 9.24989 4.47164 9.24989 4.16666H8.24989C8.24989 4.52835 8.24521 4.65221 8.21812 4.74432C8.20133 4.8014 8.16743 4.87534 7.97966 5.0631L8.68675 5.77022ZM6.72967 5.77021C6.96775 6.00829 7.28866 6.17999 7.65319 6.19735C8.02807 6.2152 8.39029 6.0667 8.68677 5.7702L7.97964 5.06312C7.85948 5.18329 7.76338 5.20146 7.70076 5.19848C7.62779 5.195 7.53203 5.15836 7.43678 5.06311L6.72967 5.77021ZM6.1868 5.35355C6.22983 5.31052 6.23618 5.32331 6.20776 5.32686C6.18477 5.32974 6.18814 5.31979 6.23463 5.34304C6.28388 5.36767 6.35119 5.41446 6.44148 5.49347C6.53084 5.57166 6.62299 5.66353 6.72967 5.77021L7.43678 5.06311C7.2485 4.87483 6.97859 4.59699 6.68185 4.44862C6.52001 4.3677 6.31504 4.30567 6.08372 4.33459C5.84697 4.36418 5.64499 4.48114 5.47969 4.64644L6.1868 5.35355ZM5.35349 6.18688L6.1868 5.35355L5.47969 4.64644L4.64637 5.47978L5.35349 6.18688ZM5.35349 6.31311C5.33647 6.29609 5.32719 6.2833 5.32238 6.27561C5.31766 6.26806 5.31631 6.26398 5.31608 6.26325C5.31591 6.26271 5.31588 6.26252 5.31589 6.26259C5.3159 6.26264 5.3159 6.26267 5.31589 6.26257C5.31589 6.26246 5.31579 6.26088 5.31635 6.25741C5.31765 6.24947 5.32184 6.23554 5.33154 6.21807C5.33612 6.20983 5.34104 6.20242 5.34562 6.19635C5.34786 6.19339 5.34979 6.19103 5.35128 6.18932C5.35278 6.18758 5.35358 6.18678 5.35349 6.18688L4.64637 5.47978C4.52035 5.6058 4.37409 5.82186 4.32935 6.09674C4.27955 6.40263 4.36448 6.73831 4.64637 7.02021L5.35349 6.31311ZM5.86383 8.55693C6.12299 8.03859 6.15215 7.57591 5.985 7.15805C5.83585 6.7852 5.54564 6.50527 5.35349 6.31311L4.64637 7.02021C4.87087 7.24471 4.99733 7.38146 5.05652 7.52945C5.09771 7.63242 5.12688 7.79475 4.9694 8.10972L5.86383 8.55693ZM4.27475 9.25077C4.46452 9.25274 4.76131 9.25868 5.04113 9.18897C5.34064 9.11436 5.67207 8.94046 5.86383 8.55693L4.9694 8.10972C4.94762 8.15327 4.91348 8.19021 4.79942 8.21862C4.66568 8.25194 4.50091 8.25307 4.28516 8.25082L4.27475 9.25077ZM4.16663 9.24999C4.20006 9.24999 4.2353 9.25036 4.27475 9.25077L4.28516 8.25082C4.24675 8.25042 4.20619 8.24999 4.16663 8.24999V9.24999ZM3.83331 9.58333C3.83331 9.36034 3.89747 9.31398 3.90608 9.30709C3.93599 9.28316 4.01172 9.24999 4.16663 9.24999V8.24999C3.90488 8.24999 3.56396 8.30016 3.28137 8.52623C2.97749 8.76934 2.83331 9.13964 2.83331 9.58333H3.83331ZM3.83331 10.4167V9.58333H2.83331V10.4167H3.83331ZM4.16663 10.75C4.02865 10.75 3.96174 10.7217 3.93381 10.7057C3.90726 10.6905 3.89055 10.6719 3.87643 10.646C3.83816 10.5758 3.83331 10.4818 3.83331 10.4167H2.83331C2.83331 10.4904 2.82847 10.813 2.99853 11.1248C3.08857 11.2899 3.2281 11.4536 3.43593 11.5729C3.64237 11.6915 3.88796 11.75 4.16663 11.75V10.75ZM5.77018 11.3131C5.54128 11.0842 5.32355 10.9098 5.02646 10.8224C4.76441 10.7453 4.4716 10.75 4.16663 10.75V11.75C4.52832 11.75 4.65217 11.7547 4.74428 11.7818C4.80135 11.7985 4.87528 11.8324 5.06304 12.0202L5.77018 11.3131ZM5.77017 13.2702C6.00825 13.0321 6.17993 12.7112 6.19729 12.3467C6.21514 11.9718 6.06665 11.6096 5.77016 11.3131L5.06306 12.0202C5.18323 12.1404 5.2014 12.2365 5.19842 12.2991C5.19495 12.3721 5.1583 12.4679 5.06305 12.5631L5.77017 13.2702ZM5.35351 13.8131C5.31048 13.7701 5.32327 13.7638 5.32682 13.7922C5.3297 13.8151 5.31975 13.8118 5.343 13.7653C5.36763 13.716 5.41442 13.6487 5.49343 13.5584C5.57162 13.4691 5.66349 13.3769 5.77017 13.2702L5.06305 12.5631C4.87477 12.7514 4.59694 13.0213 4.44857 13.3181C4.36765 13.4799 4.30563 13.6849 4.33454 13.9162C4.36414 14.1529 4.48109 14.3549 4.64639 14.5202L5.35351 13.8131ZM6.18683 14.6465L5.35351 13.8131L4.64639 14.5202L5.47971 15.3536L6.18683 14.6465ZM6.31303 14.6465C6.29601 14.6635 6.28322 14.6728 6.27553 14.6776C6.26799 14.6823 6.26391 14.6836 6.26317 14.6839C6.26264 14.684 6.26245 14.6841 6.26252 14.6841C6.26257 14.684 6.2626 14.684 6.2625 14.6841C6.2624 14.6841 6.26082 14.6842 6.25735 14.6836C6.24941 14.6823 6.23549 14.6781 6.21802 14.6684C6.20978 14.6638 6.20237 14.6589 6.1963 14.6543C6.19334 14.6521 6.19098 14.6502 6.18927 14.6487C6.18753 14.6472 6.18673 14.6464 6.18683 14.6465L5.47971 15.3536C5.60573 15.4796 5.82179 15.6259 6.09667 15.6706C6.40257 15.7204 6.73825 15.6355 7.02015 15.3536L6.31303 14.6465ZM8.55684 14.1361C8.0385 13.8769 7.57582 13.8478 7.15796 14.0149C6.78511 14.1641 6.50519 14.4543 6.31303 14.6465L7.02015 15.3536C7.24464 15.1291 7.38139 15.0026 7.52937 14.9434C7.63233 14.9022 7.79465 14.8731 8.10962 15.0305L8.55684 14.1361ZM9.25066 15.7252C9.25263 15.5354 9.25857 15.2386 9.18886 14.9588C9.11426 14.6593 8.94036 14.3279 8.55684 14.1361L8.10962 15.0305C8.15316 15.0523 8.1901 15.0865 8.21851 15.2005C8.25183 15.3343 8.25296 15.499 8.25071 15.7148L9.25066 15.7252ZM9.24989 15.8333C9.24989 15.7999 9.25025 15.7647 9.25066 15.7252L8.25071 15.7148C8.25031 15.7532 8.24989 15.7938 8.24989 15.8333H9.24989ZM9.58321 16.1667C9.36023 16.1667 9.31387 16.1025 9.30699 16.0939C9.28305 16.064 9.24989 15.9882 9.24989 15.8333H8.24989C8.24989 16.0951 8.30005 16.436 8.52611 16.7186C8.76922 17.0225 9.13952 17.1667 9.58321 17.1667V16.1667ZM10.4165 16.1667L9.58321 16.1667L9.58321 17.1667L10.4165 17.1667L10.4165 16.1667ZM10.7499 15.8333C10.7499 15.9445 10.7491 16.0144 10.7412 16.0732C10.7339 16.128 10.7244 16.1369 10.7297 16.1289C10.7401 16.1133 10.7481 16.117 10.7171 16.129C10.677 16.1446 10.5877 16.1667 10.4165 16.1667V17.1667C10.8992 17.1667 11.3201 17.046 11.5617 16.6836C11.7662 16.3769 11.7499 15.9985 11.7499 15.8333H10.7499ZM11.313 14.2298C11.0841 14.4587 10.9096 14.6764 10.8223 14.9735C10.7452 15.2355 10.7499 15.5283 10.7499 15.8333H11.7499C11.7499 15.4716 11.7545 15.3478 11.7816 15.2557C11.7984 15.1986 11.8323 15.1247 12.0201 14.9369L11.313 14.2298ZM13.2701 14.2298C13.032 13.9917 12.7111 13.82 12.3466 13.8026C11.9717 13.7848 11.6095 13.9333 11.313 14.2298L12.0201 14.9369C12.1403 14.8167 12.2364 14.7985 12.299 14.8015C12.372 14.805 12.4677 14.8416 12.563 14.9369L13.2701 14.2298ZM13.8129 14.6464C13.7699 14.6895 13.7636 14.6767 13.792 14.6731C13.815 14.6703 13.8116 14.6802 13.7651 14.6569C13.7159 14.6323 13.6486 14.5855 13.5583 14.5065C13.4689 14.4283 13.3768 14.3365 13.2701 14.2298L12.563 14.9369C12.7512 15.1252 13.0212 15.403 13.3179 15.5514C13.4797 15.6323 13.6847 15.6943 13.916 15.6654C14.1528 15.6358 14.3548 15.5188 14.5201 15.3535L13.8129 14.6464ZM14.6463 13.8131L13.8129 14.6464L14.5201 15.3535L15.3534 14.5202L14.6463 13.8131ZM14.6463 13.6869C14.6633 13.7039 14.6726 13.7167 14.6774 13.7244C14.6821 13.7319 14.6834 13.736 14.6837 13.7367C14.6838 13.7373 14.6839 13.7375 14.6839 13.7374C14.6839 13.7373 14.6839 13.7373 14.6839 13.7374C14.6839 13.7375 14.684 13.7391 14.6834 13.7426C14.6821 13.7505 14.6779 13.7644 14.6682 13.7819C14.6636 13.7902 14.6587 13.7976 14.6541 13.8036C14.6519 13.8066 14.65 13.809 14.6485 13.8107C14.647 13.8124 14.6462 13.8132 14.6463 13.8131L15.3534 14.5202C15.4794 14.3942 15.6257 14.1781 15.6704 13.9032C15.7202 13.5974 15.6353 13.2617 15.3534 12.9798L14.6463 13.6869ZM14.1359 11.4431C13.8768 11.9614 13.8476 12.4241 14.0148 12.8419C14.1639 13.2148 14.4541 13.4947 14.6463 13.6869L15.3534 12.9798C15.1289 12.7553 15.0024 12.6185 14.9432 12.4705C14.902 12.3676 14.8729 12.2052 15.0304 11.8903L14.1359 11.4431ZM15.6358 10.7491C15.3717 10.7473 15.066 10.7391 14.8101 10.8216C14.4849 10.9265 14.2824 11.15 14.1359 11.4431L15.0304 11.8903C15.0672 11.8166 15.0913 11.7901 15.0991 11.7826C15.102 11.7798 15.1031 11.7779 15.1169 11.7734C15.1387 11.7664 15.1827 11.7572 15.2733 11.7523C15.3648 11.7474 15.475 11.748 15.6288 11.7491L15.6358 10.7491ZM15.8331 10.75C15.764 10.75 15.6989 10.7495 15.6358 10.7491L15.6288 11.7491C15.6915 11.7495 15.76 11.75 15.8331 11.75V10.75ZM16.1555 10.3791C16.1361 10.6364 16.091 10.7 16.0831 10.7089C16.0823 10.7098 16.0813 10.7108 16.0788 10.7124C16.0759 10.7143 16.0679 10.719 16.0517 10.7245C16.017 10.7363 15.9503 10.75 15.8331 10.75V11.75C16.2045 11.75 16.5699 11.6655 16.8294 11.3745C17.0693 11.1055 17.1302 10.7525 17.1527 10.4543L16.1555 10.3791ZM16.1665 9.65135C16.1669 9.86062 16.1671 10.2254 16.1555 10.3791L17.1527 10.4543C17.1679 10.2519 17.1668 9.83685 17.1665 9.64968L16.1665 9.65135ZM16.1664 9.58333C16.1664 9.60233 16.1665 9.6255 16.1665 9.65135L17.1665 9.64967C17.1665 9.62353 17.1664 9.60131 17.1664 9.58333H16.1664ZM15.8331 9.25C15.9711 9.25 16.038 9.27826 16.0659 9.2943C16.0925 9.30954 16.1092 9.32811 16.1233 9.354C16.1616 9.42416 16.1664 9.51821 16.1664 9.58333H17.1664C17.1664 9.50956 17.1713 9.18694 17.0012 8.87516C16.9112 8.71008 16.7716 8.54636 16.5638 8.42705C16.3574 8.30853 16.1118 8.25 15.8331 8.25V9.25ZM14.2296 8.68685C14.4585 8.91576 14.6762 9.09021 14.9733 9.17759C15.2353 9.25467 15.5281 9.25 15.8331 9.25V8.25C15.4714 8.25 15.3476 8.24532 15.2555 8.21823C15.1984 8.20144 15.1245 8.16754 14.9367 7.97977L14.2296 8.68685ZM14.2296 6.72976C13.9915 6.96784 13.8198 7.28876 13.8025 7.65328C13.7846 8.02816 13.9331 8.39038 14.2296 8.68687L14.9367 7.97975C14.8165 7.85959 14.7983 7.76348 14.8013 7.70085C14.8048 7.62787 14.8414 7.53211 14.9367 7.43686L14.2296 6.72976ZM14.6462 6.18686C14.6893 6.22989 14.6765 6.23624 14.6729 6.20782C14.6701 6.18484 14.68 6.18821 14.6567 6.2347C14.6321 6.28396 14.5853 6.35127 14.5063 6.44156C14.4281 6.53092 14.3363 6.62308 14.2296 6.72976L14.9367 7.43686C15.125 7.24857 15.4028 6.97866 15.5512 6.68191C15.6321 6.52007 15.6941 6.31511 15.6652 6.08379C15.6356 5.84704 15.5187 5.64506 15.3534 5.47976L14.6462 6.18686ZM13.8129 5.35352L14.6462 6.18686L15.3534 5.47976L14.52 4.64642L13.8129 5.35352ZM13.6867 5.35352C13.7037 5.33651 13.7165 5.32723 13.7242 5.32242C13.7318 5.3177 13.7358 5.31635 13.7366 5.31612C13.7371 5.31595 13.7373 5.31592 13.7372 5.31593C13.7372 5.31594 13.7372 5.31594 13.7372 5.31593C13.7374 5.31593 13.7389 5.31583 13.7424 5.31639C13.7503 5.31769 13.7643 5.32188 13.7817 5.33158C13.79 5.33616 13.7974 5.34108 13.8034 5.34566C13.8064 5.34789 13.8088 5.34983 13.8105 5.35131C13.8122 5.35282 13.813 5.35362 13.8129 5.35352L14.52 4.64642C14.394 4.5204 14.178 4.37414 13.9031 4.32939C13.5972 4.27959 13.2615 4.36453 12.9796 4.64642L13.6867 5.35352ZM11.4429 5.86387C11.9612 6.12305 12.4239 6.1522 12.8418 5.98505C13.2146 5.8359 13.4946 5.54568 13.6867 5.35352L12.9796 4.64642C12.7551 4.87093 12.6184 4.99738 12.4704 5.05658C12.3674 5.09777 12.2051 5.12694 11.8901 4.96945L11.4429 5.86387ZM10.7491 4.27478C10.7471 4.46456 10.7412 4.76134 10.8109 5.04117C10.8855 5.34068 11.0594 5.67211 11.4429 5.86387L11.8901 4.96945C11.8466 4.94768 11.8096 4.91353 11.7812 4.79947C11.7479 4.66572 11.7468 4.50094 11.749 4.28519L10.7491 4.27478ZM10.7499 4.16666C10.7499 4.20009 10.7495 4.23533 10.7491 4.27478L11.749 4.28519C11.7494 4.24678 11.7499 4.20622 11.7499 4.16666H10.7499ZM10.4165 3.83333C10.6395 3.83333 10.6859 3.89748 10.6928 3.9061C10.7167 3.93602 10.7499 4.01176 10.7499 4.16666H11.7499C11.7499 3.9049 11.6997 3.56397 11.4736 3.28139C11.2305 2.97751 10.8602 2.83333 10.4165 2.83333V3.83333ZM12.8333 9.99999C12.8333 11.5648 11.5648 12.8333 9.99998 12.8333V13.8333C12.1171 13.8333 13.8333 12.1171 13.8333 9.99999H12.8333ZM9.99998 7.16666C11.5648 7.16666 12.8333 8.43519 12.8333 9.99999H13.8333C13.8333 7.8829 12.1171 6.16666 9.99998 6.16666V7.16666ZM7.16665 9.99999C7.16665 8.43519 8.43517 7.16666 9.99998 7.16666V6.16666C7.88289 6.16666 6.16665 7.8829 6.16665 9.99999H7.16665ZM9.99998 12.8333C8.43517 12.8333 7.16665 11.5648 7.16665 9.99999H6.16665C6.16665 12.1171 7.88289 13.8333 9.99998 13.8333V12.8333Z" fill="black"/>
</svg>
