<svg width="20" height="20" viewBox="0 0 20 20" fill="none" xmlns="http://www.w3.org/2000/svg">
<rect x="0.5" y="0.5" width="19" height="19" rx="5.5" stroke="black"/>
<path d="M3.15552 13.4222H16.8444M3.15552 10.084L16.8444 10M3.15552 6.57779H16.8444M3.15552 6.57779L3.15552 12.8445C3.15552 15.0536 4.94638 16.8445 7.15552 16.8445H12.8444C15.0535 16.8445 16.8444 15.0536 16.8444 12.8445V6.57779M3.15552 6.57779V6.57779C3.15552 4.68774 4.6877 3.15556 6.57774 3.15556H13.4222C15.3122 3.15556 16.8444 4.68774 16.8444 6.57779V6.57779M7.71848 16.8445V6.57779M12.2814 16.8445V6.57779" stroke="black" stroke-linejoin="round"/>
<path d="M15.3334 3.66667L16.6667 6.33334L3.33337 6.33335L4.33337 3.66667H15.3334Z" fill="black" fill-opacity="0.9"/>
</svg>
