<svg width="20" height="20" viewBox="0 0 20 20" fill="none" xmlns="http://www.w3.org/2000/svg">
<rect x="0.5" y="0.5" width="19" height="19" rx="3.5" fill="#D9D9D9" stroke="black"/>
<path d="M7.71848 16.8444H5.15552C4.05095 16.8444 3.15552 15.949 3.15552 14.8444V13.4222V10.0839V6.57777V5.15555C3.15552 4.05098 4.05095 3.15555 5.15552 3.15555H14.8444C15.949 3.15555 16.8444 4.05098 16.8444 5.15555V6.57777V9.99999V13.4222V14.8444C16.8444 15.949 15.949 16.8444 14.8444 16.8444H12.2814H7.71848Z" fill="white"/>
<path d="M3.15552 13.4222H16.8444M3.15552 10.0839L16.8444 9.99999M3.15552 6.57777H16.8444M3.15552 6.57777L3.15552 14.8444C3.15552 15.949 4.05095 16.8444 5.15552 16.8444H14.8444C15.949 16.8444 16.8444 15.949 16.8444 14.8444V6.57777M3.15552 6.57777L3.15552 5.15555C3.15552 4.05098 4.05095 3.15555 5.15552 3.15555H14.8444C15.949 3.15555 16.8444 4.05098 16.8444 5.15555V6.57777M7.71848 16.8444V6.57777M12.2814 16.8444V6.57777" stroke="black" stroke-linejoin="round"/>
</svg>
