<svg width="20" height="20" viewBox="0 0 20 20" fill="none" xmlns="http://www.w3.org/2000/svg">
<path d="M1.48476 8.19238L8.09376 1.58338C9.07007 0.607069 10.653 0.607069 11.6293 1.58338L18.2383 8.19238C19.2146 9.16869 19.2146 10.7516 18.2383 11.7279L11.6293 18.3369C10.653 19.3132 9.07007 19.3132 8.09376 18.3369L1.48476 11.7279C0.508452 10.7516 0.508451 9.16869 1.48476 8.19238Z" fill="#66CC72" stroke="black"/>
<circle cx="9.90922" cy="9.90098" r="5.44059" fill="white" stroke="black"/>
<path d="M10.9933 9.90099C10.9933 10.4998 10.5079 10.9851 9.90911 10.9851C9.31035 10.9851 8.82495 10.4998 8.82495 9.90099C8.82495 9.30223 9.31035 8.81683 9.90911 8.81683C10.5079 8.81683 10.9933 9.30223 10.9933 9.90099Z" stroke="black"/>
<path d="M10.7109 8.68588L12.3311 6.66068" stroke="black" stroke-linecap="round" stroke-linejoin="round"/>
<path d="M9.90917 5.54456V6.31334M14.2656 10.2305H13.4968M9.90917 14.2574V13.4886M5.55273 10.2305H6.32152" stroke="black" stroke-linecap="round" stroke-linejoin="round"/>
<path d="M6.95773 6.90775L7.47785 7.43668M13.1253 7.18437L12.5963 7.70449M12.8524 12.9023L12.3323 12.3734M7.13071 13.0791L7.65964 12.5589" stroke="black" stroke-linecap="round" stroke-linejoin="round"/>
</svg>
