<svg width="20" height="20" viewBox="0 0 20 20" fill="none" xmlns="http://www.w3.org/2000/svg">
<rect x="0.5" y="0.5" width="19" height="19" rx="3.5" fill="#83BBE5" stroke="black"/>
<path d="M3 16.0428V14.1588C3 12.0918 4.26047 10.2219 6.52941 9.43074C6.95893 9.28097 7.4648 9.16436 7.89499 9.04889C8.25902 8.95119 8.4902 8.61528 8.4902 8.23837C8.4902 7.90695 8.29952 7.61128 8.07137 7.3709C6.68232 5.90738 7.10124 2 10.0588 2C13.0595 2 13.6141 5.71621 12.1747 7.36974C11.9733 7.60101 11.8204 7.72867 11.8204 8.03528C11.8204 8.44097 12.0724 8.95349 12.464 9.05955L12.4768 9.06301C12.814 9.15432 13.1852 9.25486 13.5882 9.43074C15.1196 10.099 17.1176 12.0918 17.1176 14.1588V16.0444C17.1176 17.149 16.2222 18.0428 15.1176 18.0428L13.6878 18.0428H6.52941L5 18.0428C3.89543 18.0428 3 17.1474 3 16.0428Z" fill="white"/>
<path d="M6.52941 15.133V18.0428M13.6878 15.133V18.0428M6.52941 9.43074C4.26047 10.2219 3 12.0918 3 14.1588V16.0428C3 17.1474 3.89543 18.0428 5 18.0428L15.1176 18.0428C16.2222 18.0428 17.1176 17.149 17.1176 16.0444C17.1176 15.5484 17.1176 14.9299 17.1176 14.1588C17.1176 12.0918 15.1196 10.099 13.5882 9.43074M6.52941 9.43074C6.95893 9.28097 7.4648 9.16436 7.89499 9.04889C8.25902 8.95119 8.4902 8.61528 8.4902 8.23837V8.23837C8.4902 7.90695 8.29952 7.61128 8.07137 7.3709C6.68232 5.90738 7.10124 2 10.0588 2C13.0595 2 13.6141 5.71621 12.1747 7.36974C11.9733 7.601 11.8204 7.72867 11.8204 8.03528V8.03528C11.8204 8.44097 12.0724 8.95349 12.464 9.05955C12.8046 9.1518 13.1801 9.25264 13.5882 9.43074M6.52941 9.43074C7.23696 10.2546 7.07843 11.3341 10.0588 11.3341C13.0392 11.3341 12.8431 10.2219 13.5882 9.43074" stroke="black" stroke-linecap="round" stroke-linejoin="round"/>
<path d="M10.0568 4.19261C8.64629 3.76164 8.4112 4.12078 7.70593 4.19261C7.70593 4.19261 8.18021 2.46876 10.0609 2.46876C11.9416 2.46876 12.4118 3.97712 12.4118 3.97712C11.6282 4.12078 11.4674 4.62357 10.0568 4.19261Z" fill="black"/>
</svg>
