<svg width="20" height="20" viewBox="0 0 20 20" fill="none" xmlns="http://www.w3.org/2000/svg">
<rect x="0.5" y="0.5" width="19" height="19" rx="5.5" stroke="black"/>
<path d="M2.66669 18.2002V14.529C2.66669 12.3991 3.97533 10.4722 6.33099 9.65699M17.3239 18.2002C17.3239 18.6854 17.3239 18.313 17.3239 14.529C17.3239 12.3991 15.2495 10.3456 13.6596 9.65699M6.33099 15.5329V19M13.763 15.5329V19.3333M6.33099 9.65699C7.01212 9.42127 7.87815 9.26527 8.36672 9.0714V7.87587C6.43278 6.78435 6.6481 2 9.9953 2C13.3425 2 13.7581 6.42051 11.8242 7.87587C11.8242 7.87587 11.8242 8.70756 11.8242 9.0714C12.3331 9.26527 12.9487 9.34909 13.6596 9.65699M6.33099 9.65699C7.06558 10.506 6.901 11.6183 9.9953 11.6183C13.0896 11.6183 12.886 10.4722 13.6596 9.65699" stroke="black" stroke-linecap="round" stroke-linejoin="round"/>
<path d="M9.99054 4.19118C8.36197 3.6648 8.09053 4.10345 7.27624 4.19118C7.27624 4.19118 7.82383 2.08566 9.99529 2.08566C12.1667 2.08566 12.7096 3.92799 12.7096 3.92799C11.8048 4.10345 11.6191 4.71757 9.99054 4.19118Z" fill="black" fill-opacity="0.9" stroke="black" stroke-linecap="round" stroke-linejoin="round"/>
</svg>
